<!-- Generated by IcoMoon.io -->
<svg version="1.1" xmlns="http://www.w3.org/2000/svg" width="31" height="32" viewBox="0 0 31 32">
<title>shape-8</title>
<path d="M15.575 14.304c-3.577 0-6.488-3.011-6.488-6.716 0-3.7 2.911-6.711 6.488-6.711 3.581 0 6.496 3.011 6.496 6.711 0 3.704-2.915 6.716-6.496 6.716zM15.575 2.792c-2.556 0-4.638 2.152-4.638 4.796s2.082 4.796 4.638 4.796c2.56 0 4.638-2.148 4.638-4.796 0-2.643-2.078-4.796-4.638-4.796zM25.916 31.562h-20.677c-1.481-0.030-2.681-1.191-2.774-2.653l-0-0.008-1.569-21.085c-0.006-0.068-0.009-0.148-0.009-0.228 0-0.751 0.281-1.437 0.744-1.958l-0.003 0.003c0.504-0.563 1.232-0.917 2.042-0.921h3.56c0.513 0 0.929 0.43 0.929 0.96 0 0.526-0.416 0.956-0.929 0.956h-3.559c-0.263 0-0.504 0.11-0.684 0.311-0.152 0.17-0.245 0.395-0.245 0.642 0 0.030 0.001 0.060 0.004 0.089l-0-0.004 1.569 21.089c0.030 0.491 0.431 0.879 0.924 0.89l0.001 0h20.677c0.482 0 0.89-0.395 0.925-0.89l1.569-21.089c0.022-0.272-0.066-0.526-0.245-0.728-0.175-0.202-0.416-0.307-0.679-0.307h-3.559c-0.515-0.007-0.93-0.426-0.93-0.942 0-0.008 0-0.015 0-0.023l-0 0.001c0-0.526 0.416-0.956 0.929-0.956h3.559c0.771 0 1.517 0.338 2.043 0.921 0.46 0.518 0.741 1.204 0.741 1.955 0 0.079-0.003 0.157-0.009 0.234l0.001-0.010-1.569 21.094c-0.098 1.467-1.296 2.624-2.772 2.656l-0.003 0zM15.575 9.508c-0.175 0-0.351-0.053-0.513-0.162-0.251-0.18-0.413-0.471-0.413-0.8 0-0.196 0.057-0.379 0.156-0.532l-0.002 0.004 1.859-2.88c0.281-0.438 0.855-0.561 1.284-0.263 0.425 0.294 0.544 0.885 0.259 1.328l-1.859 2.876c-0.164 0.258-0.448 0.427-0.771 0.43h-0z"></path>
</svg>
