<!-- Generated by IcoMoon.io -->
<svg version="1.1" xmlns="http://www.w3.org/2000/svg" width="32" height="32" viewBox="0 0 32 32">
<title>shape-9</title>
<path d="M30.626 2.362l-6.715 28.311c-0.094 0.471-0.565 0.8-1.035 0.8h-13.341c-0.518 0-0.941-0.329-1.040-0.8l-6.715-28.311c-0.141-0.565 0.235-1.134 0.805-1.28 0.565-0.141 1.134 0.235 1.275 0.805l1.939 8.188c1.609 1.045 2.979 0.24 4.588-0.659 1.845-1.040 3.925-2.226 6.146 0 1.939 1.939 3.496 1.040 5.341 0 1.562-0.899 3.266-1.845 5.106-0.805l1.609-6.772c0.141-0.565 0.706-0.941 1.275-0.8 0.565 0.141 0.946 0.706 0.758 1.322zM26.748 9.656c-1.322-0.951-2.551-0.381-4.301 0.612-1.040 0.612-2.221 1.28-3.548 1.28-0.988 0-2.033-0.376-3.073-1.421-1.605-1.609-2.885-0.993-4.871 0.141-1.365 0.805-2.979 1.704-4.772 1.087l4.254 17.944h11.633z"></path>
</svg>
