<!-- Generated by IcoMoon.io -->
<svg version="1.1" xmlns="http://www.w3.org/2000/svg" width="32" height="32" viewBox="0 0 32 32">
<title>shape-7</title>
<path d="M6.698 6.242c2.218 2.323 4.405 5.076 4.405 7.978 0 2.867-2.258 5.287-5.111 5.287-2.858 0-5.116-2.42-5.116-5.287 0-2.902 2.192-5.655 4.405-7.978 0.167-0.175 0.395-0.281 0.64-0.298 0.294-0.018 0.579 0.088 0.776 0.298zM27.156 6.242c2.214 2.323 4.405 5.076 4.405 7.978 0 2.867-2.258 5.287-5.116 5.287-2.854 0-5.111-2.42-5.111-5.287 0-2.902 2.192-5.655 4.405-7.978 0.179-0.188 0.431-0.306 0.71-0.306s0.532 0.117 0.71 0.305l0 0zM2.792 14.22c0 1.946 1.469 3.437 3.2 3.437 1.727 0 3.196-1.49 3.196-3.437 0-1.688-1.425-3.901-3.2-5.918-1.767 2.016-3.196 4.23-3.196 5.918zM23.25 14.22c0 1.946 1.468 3.437 3.2 3.437 1.727 0 3.191-1.49 3.191-3.437 0-1.688-1.425-3.901-3.196-5.918-1.771 2.016-3.196 4.23-3.196 5.918zM16.149 12.112c0.294-0.022 0.583 0.088 0.78 0.298 2.214 2.323 4.405 5.072 4.405 7.974 0 2.867-2.258 5.287-5.116 5.287s-5.116-2.42-5.116-5.287c0-2.902 2.192-5.655 4.405-7.978 0.167-0.175 0.395-0.281 0.64-0.294zM16.219 14.47c-1.771 2.016-3.2 4.226-3.2 5.913 0 1.946 1.469 3.437 3.2 3.437s3.2-1.49 3.2-3.437c0-1.688-1.429-3.901-3.2-5.918z"></path>
</svg>
