<?xml version="1.0" encoding="utf-8"?>
<!-- Generator: Adobe Illustrator 16.0.4, SVG Export Plug-In . SVG Version: 6.00 Build 0)  -->
<!DOCTYPE svg PUBLIC "-//W3C//DTD SVG 1.1//EN" "http://www.w3.org/Graphics/SVG/1.1/DTD/svg11.dtd">
<svg version="1.1" id="Group_10_copy_5_1_" xmlns="http://www.w3.org/2000/svg" xmlns:xlink="http://www.w3.org/1999/xlink" x="0px"
	 y="0px" width="490.667px" height="188px" viewBox="0 0 490.667 188" enable-background="new 0 0 490.667 188"
	 xml:space="preserve">
<g id="Rectangle_4_copy_2">
	<g>
		<linearGradient id="SVGID_1_" gradientUnits="userSpaceOnUse" x1="152.3335" y1="71.8335" x2="213.3335" y2="71.8335">
			<stop  offset="0" style="stop-color:#E01F3F"/>
			<stop  offset="1" style="stop-color:#BA112D"/>
		</linearGradient>
		<polygon fill="url(#SVGID_1_)" points="186.333,20.333 152.333,123.333 179.333,123.333 213.333,20.333 		"/>
	</g>
</g>
<g id="Rectangle_4">
	<g>
		<linearGradient id="SVGID_2_" gradientUnits="userSpaceOnUse" x1="186.3335" y1="71.8335" x2="247.3335" y2="71.8335">
			<stop  offset="0" style="stop-color:#E01F3F"/>
			<stop  offset="1" style="stop-color:#BA112D"/>
		</linearGradient>
		<polygon fill="url(#SVGID_2_)" points="213.333,20.333 186.333,20.333 220.333,123.333 247.333,123.333 		"/>
	</g>
</g>
<g id="Rectangle_4_copy">
	<g>
		<linearGradient id="SVGID_3_" gradientUnits="userSpaceOnUse" x1="77.2466" y1="126.6924" x2="170.4209" y2="99.9751">
			<stop  offset="0" style="stop-color:#E01F3F"/>
			<stop  offset="1" style="stop-color:#BA112D"/>
		</linearGradient>
		<polygon fill="url(#SVGID_3_)" points="130.333,54.333 90.333,172.333 117.333,172.333 157.333,54.333 		"/>
	</g>
</g>
<g id="Rectangle_4_copy_4">
	<g>
		<linearGradient id="SVGID_4_" gradientUnits="userSpaceOnUse" x1="130.3335" y1="88.8335" x2="179.3335" y2="88.8335">
			<stop  offset="0" style="stop-color:#E01F3F"/>
			<stop  offset="1" style="stop-color:#BA112D"/>
		</linearGradient>
		<polygon fill="url(#SVGID_4_)" points="157.333,54.333 130.333,54.333 152.333,123.333 179.333,123.333 		"/>
	</g>
</g>
<g id="Li____ito">
	<g>
		<path fill="#FFFFFF" d="M23.679,41.032h-10.32v80.88h48.48v-9.6h-38.16V41.032z M81.278,121.912h10.32v-80.88h-10.32V121.912z
			 M261.279,121.912h10.319v-80.88h-10.319V121.912z M288.638,50.631l24.48-0.12v71.4h10.319v-71.4l24.48,0.12v-9.6h-59.28V50.631z
			 M429.578,64.971c-1.4-5.079-3.581-9.479-6.539-13.199c-2.961-3.721-6.721-6.64-11.28-8.761c-4.561-2.118-10.001-3.18-16.32-3.18
			c-6.32,0-11.76,1.062-16.32,3.18c-4.56,2.121-8.321,5.04-11.279,8.761c-2.961,3.72-5.142,8.12-6.54,13.199
			c-1.4,5.082-2.101,10.581-2.101,16.5c0,5.922,0.7,11.421,2.101,16.5c1.398,5.082,3.579,9.48,6.54,13.2
			c2.958,3.721,6.72,6.642,11.279,8.76c4.561,2.119,10,3.181,16.32,3.181c6.319,0,11.76-1.062,16.32-3.181
			c4.56-2.118,8.319-5.039,11.28-8.76c2.958-3.72,5.139-8.118,6.539-13.2c1.399-5.079,2.101-10.578,2.101-16.5
			C431.678,75.552,430.977,70.053,429.578,64.971z M414.938,105.892c-4.28,5.72-10.781,8.579-19.5,8.579
			c-8.721,0-15.222-2.859-19.5-8.579c-4.28-5.719-6.42-13.86-6.42-24.421c0-10.56,2.14-18.699,6.42-24.42
			c4.278-5.719,10.779-8.58,19.5-8.58c8.719,0,15.22,2.861,19.5,8.58c4.279,5.721,6.42,13.86,6.42,24.42
			C421.358,92.032,419.217,100.173,414.938,105.892z"/>
	</g>
</g>
<g id="Productions">
	<g>
		<path fill="#FFFFFF" d="M168.431,142.272c-0.881-0.848-1.96-1.513-3.24-1.992c-1.28-0.48-2.735-0.72-4.367-0.72h-9.841v32.352
			h2.257v-12.816h7.247c1.568,0,3.008-0.223,4.32-0.672c1.312-0.447,2.432-1.087,3.36-1.92c0.928-0.832,1.656-1.863,2.184-3.096
			c0.528-1.231,0.792-2.616,0.792-4.152c0-1.439-0.232-2.752-0.696-3.936S169.311,143.12,168.431,142.272z M166.656,155.016
			c-1.488,1.376-3.545,2.063-6.169,2.063h-7.247v-15.504h7.584c2.655,0,4.663,0.681,6.023,2.04c1.359,1.36,2.04,3.24,2.04,5.64
			C168.887,151.72,168.143,153.64,166.656,155.016z M199.055,155.135c1.487-1.584,2.231-3.672,2.231-6.264
			c0-1.376-0.232-2.64-0.696-3.792s-1.136-2.136-2.016-2.952c-0.881-0.815-1.961-1.447-3.24-1.896
			c-1.28-0.448-2.735-0.672-4.368-0.672h-11.279v32.352h2.256v-13.584h8.688h0.097l8.256,13.584h2.496l-8.4-13.776
			C195.575,157.72,197.567,156.719,199.055,155.135z M190.63,156.312h-8.688v-14.736h9.023c2.656,0,4.664,0.647,6.024,1.944
			c1.359,1.296,2.04,3.08,2.04,5.352c0,2.336-0.744,4.16-2.232,5.472C195.311,155.656,193.254,156.312,190.63,156.312z
			 M232.103,143.879c-1.152-1.472-2.585-2.623-4.296-3.456c-1.713-0.831-3.721-1.248-6.024-1.248s-4.312,0.417-6.023,1.248
			c-1.713,0.833-3.145,1.984-4.296,3.456c-1.152,1.473-2.017,3.225-2.593,5.256c-0.576,2.033-0.863,4.232-0.863,6.601
			s0.287,4.568,0.863,6.6c0.576,2.032,1.44,3.785,2.593,5.256c1.151,1.473,2.583,2.625,4.296,3.456
			c1.711,0.833,3.72,1.248,6.023,1.248s4.312-0.415,6.024-1.248c1.711-0.831,3.144-1.983,4.296-3.456
			c1.152-1.471,2.016-3.224,2.592-5.256c0.576-2.031,0.864-4.231,0.864-6.6s-0.288-4.567-0.864-6.601
			C234.119,147.104,233.255,145.352,232.103,143.879z M232.607,161.591c-0.464,1.793-1.176,3.336-2.136,4.633
			c-0.96,1.296-2.16,2.304-3.601,3.023c-1.439,0.72-3.137,1.08-5.088,1.08c-1.952,0-3.647-0.36-5.088-1.08
			c-1.439-0.72-2.64-1.728-3.6-3.023c-0.96-1.297-1.673-2.84-2.137-4.633c-0.464-1.791-0.695-3.744-0.695-5.855
			c0-2.112,0.231-4.057,0.695-5.832c0.464-1.776,1.177-3.312,2.137-4.608s2.16-2.312,3.6-3.048c1.44-0.735,3.136-1.104,5.088-1.104
			c1.951,0,3.648,0.368,5.088,1.104c1.44,0.736,2.641,1.752,3.601,3.048s1.672,2.832,2.136,4.608
			c0.464,1.775,0.696,3.72,0.696,5.832C233.303,157.847,233.071,159.8,232.607,161.591z M252.502,139.56h-7.92v32.352h7.92
			c5.28,0,9.28-1.376,12-4.128s4.08-6.784,4.08-12.096c0-5.28-1.36-9.288-4.08-12.024S257.783,139.56,252.502,139.56z
			 M265.415,162.072c-0.608,1.792-1.504,3.264-2.688,4.416c-1.185,1.151-2.633,2-4.345,2.544s-3.672,0.815-5.88,0.815h-5.664
			v-28.224h5.664c4.416,0,7.824,1.104,10.225,3.312c2.399,2.208,3.6,5.792,3.6,10.752
			C266.327,158.152,266.022,160.28,265.415,162.072z M298.342,159.24c0,3.872-0.833,6.672-2.496,8.399
			c-1.664,1.729-3.937,2.593-6.816,2.593s-5.152-0.864-6.815-2.593c-1.665-1.728-2.496-4.527-2.496-8.399v-19.68h-2.256v19.632
			c0,2.272,0.279,4.224,0.84,5.855c0.56,1.632,1.344,2.993,2.352,4.08c1.008,1.089,2.224,1.889,3.648,2.4
			c1.423,0.512,3,0.768,4.728,0.768c1.729,0,3.304-0.256,4.729-0.768c1.423-0.512,2.64-1.312,3.647-2.4
			c1.008-1.087,1.792-2.448,2.353-4.08c0.56-1.632,0.84-3.583,0.84-5.855V139.56h-2.256V159.24z M328.414,169.631
			c-1.2,0.336-2.568,0.504-4.104,0.504c-1.921,0-3.656-0.312-5.208-0.936c-1.553-0.624-2.873-1.552-3.96-2.784
			c-1.089-1.231-1.929-2.743-2.521-4.536c-0.593-1.792-0.888-3.84-0.888-6.144c0-4.735,1.128-8.336,3.384-10.8
			s5.416-3.696,9.479-3.696c1.312,0,2.536,0.144,3.673,0.432c1.135,0.288,2.167,0.641,3.096,1.057l0.528-1.872
			c-0.896-0.448-1.961-0.841-3.192-1.177c-1.232-0.336-2.601-0.504-4.104-0.504c-2.464,0-4.64,0.393-6.527,1.177
			c-1.889,0.784-3.465,1.904-4.729,3.359c-1.264,1.457-2.225,3.2-2.88,5.232c-0.656,2.032-0.983,4.296-0.983,6.792
			s0.295,4.752,0.888,6.768c0.592,2.017,1.504,3.744,2.736,5.185c1.231,1.439,2.775,2.552,4.632,3.336
			c1.855,0.784,4.048,1.176,6.576,1.176c0.896,0,1.703-0.041,2.424-0.12c0.72-0.08,1.392-0.199,2.016-0.36
			c0.624-0.159,1.216-0.352,1.776-0.575c0.56-0.224,1.111-0.48,1.655-0.769l-0.575-1.92
			C330.677,168.904,329.614,169.295,328.414,169.631z M337.269,141.624l10.176-0.048v30.336h2.256v-30.336l10.177,0.048v-2.063
			h-22.608V141.624z M367.365,171.912h2.256V139.56h-2.256V171.912z M402.836,143.879c-1.152-1.472-2.585-2.623-4.296-3.456
			c-1.713-0.831-3.721-1.248-6.024-1.248s-4.312,0.417-6.024,1.248c-1.712,0.833-3.144,1.984-4.296,3.456
			c-1.151,1.473-2.016,3.225-2.592,5.256c-0.576,2.033-0.864,4.232-0.864,6.601s0.288,4.568,0.864,6.6
			c0.576,2.032,1.44,3.785,2.592,5.256c1.152,1.473,2.584,2.625,4.296,3.456c1.712,0.833,3.721,1.248,6.024,1.248
			s4.312-0.415,6.024-1.248c1.711-0.831,3.144-1.983,4.296-3.456c1.151-1.471,2.016-3.224,2.592-5.256
			c0.576-2.031,0.864-4.231,0.864-6.6s-0.288-4.567-0.864-6.601C404.852,147.104,403.988,145.352,402.836,143.879z M403.34,161.591
			c-0.465,1.793-1.176,3.336-2.136,4.633c-0.961,1.296-2.16,2.304-3.601,3.023c-1.439,0.72-3.137,1.08-5.088,1.08
			c-1.952,0-3.648-0.36-5.088-1.08c-1.44-0.72-2.64-1.728-3.601-3.023c-0.96-1.297-1.672-2.84-2.136-4.633
			c-0.464-1.791-0.696-3.744-0.696-5.855c0-2.112,0.232-4.057,0.696-5.832c0.464-1.776,1.176-3.312,2.136-4.608
			c0.961-1.296,2.16-2.312,3.601-3.048c1.439-0.735,3.136-1.104,5.088-1.104c1.951,0,3.648,0.368,5.088,1.104
			c1.44,0.736,2.64,1.752,3.601,3.048c0.96,1.296,1.671,2.832,2.136,4.608c0.463,1.775,0.696,3.72,0.696,5.832
			C404.037,157.847,403.803,159.8,403.34,161.591z M436.1,162.839c0,1.152,0.023,2.225,0.072,3.216
			c0.048,0.993,0.136,1.953,0.264,2.881h-0.096c-0.353-0.641-0.769-1.345-1.248-2.112c-0.48-0.769-1.009-1.6-1.584-2.496
			l-15.792-24.768h-2.4v32.352h2.256v-23.28c0-1.151-0.023-2.224-0.072-3.216c-0.048-0.991-0.136-1.951-0.264-2.88h0.096
			c0.353,0.641,0.769,1.344,1.248,2.112c0.48,0.768,1.009,1.601,1.584,2.496l15.792,24.768h2.4V139.56H436.1V162.839z
			 M466.916,159.768c-0.545-0.961-1.265-1.769-2.16-2.425c-0.896-0.655-1.928-1.207-3.096-1.655
			c-1.169-0.448-2.376-0.88-3.624-1.296c-1.152-0.385-2.192-0.776-3.12-1.177c-0.929-0.399-1.729-0.863-2.4-1.392
			s-1.192-1.152-1.56-1.872c-0.368-0.72-0.552-1.608-0.552-2.664c0-1.855,0.592-3.344,1.775-4.464s3.12-1.68,5.809-1.68
			c1.248,0,2.527,0.144,3.84,0.432c1.312,0.288,2.464,0.672,3.456,1.152l0.624-1.681c-0.929-0.479-2.072-0.912-3.433-1.296
			s-2.872-0.576-4.535-0.576c-1.729,0-3.209,0.209-4.44,0.624c-1.232,0.417-2.24,0.984-3.024,1.704s-1.352,1.568-1.704,2.544
			c-0.352,0.977-0.527,2.009-0.527,3.097c0,1.408,0.271,2.615,0.815,3.624c0.544,1.008,1.248,1.855,2.112,2.544
			s1.84,1.264,2.928,1.728s2.176,0.872,3.265,1.224c1.056,0.353,2.079,0.689,3.071,1.009c0.992,0.32,1.872,0.728,2.641,1.224
			c0.768,0.496,1.375,1.128,1.824,1.896c0.447,0.768,0.672,1.775,0.672,3.023c0,1.217-0.209,2.256-0.624,3.12
			c-0.417,0.864-0.984,1.576-1.704,2.136c-0.72,0.561-1.593,0.977-2.616,1.248c-1.024,0.272-2.128,0.408-3.312,0.408
			c-1.856,0-3.44-0.184-4.752-0.552c-1.312-0.368-2.513-0.824-3.601-1.368l-0.672,1.872c0.96,0.544,2.136,1.016,3.528,1.416
			c1.392,0.399,3.223,0.6,5.496,0.6c1.567,0,2.991-0.191,4.271-0.576c1.279-0.384,2.376-0.951,3.288-1.704
			c0.912-0.751,1.615-1.68,2.112-2.783c0.495-1.104,0.744-2.376,0.744-3.816C467.732,161.944,467.459,160.728,466.916,159.768z"/>
	</g>
</g>
<g id="Ellipse_4">
	<g>
		<circle fill="#FFFFFF" cx="446.333" cy="25.333" r="20"/>
	</g>
</g>
<g id="Inc">
	<g>
		<path d="M431.919,32.912h1.128V16.736h-1.128V32.912z M446.511,28.375c0,0.576,0.012,1.112,0.036,1.608s0.067,0.976,0.132,1.439
			h-0.048c-0.177-0.319-0.384-0.672-0.624-1.056s-0.504-0.8-0.792-1.248l-7.896-12.384h-1.199v16.176h1.128v-11.64
			c0-0.576-0.013-1.112-0.036-1.608c-0.024-0.496-0.068-0.976-0.132-1.44h0.048c0.176,0.32,0.384,0.673,0.624,1.057
			s0.504,0.8,0.792,1.248l7.896,12.384h1.2V16.736h-1.128V28.375z M460.815,31.184c-0.464,0.224-0.996,0.42-1.596,0.588
			s-1.284,0.252-2.052,0.252c-0.96,0-1.828-0.156-2.604-0.469c-0.776-0.312-1.436-0.775-1.979-1.392
			c-0.544-0.615-0.965-1.372-1.26-2.268c-0.297-0.896-0.444-1.92-0.444-3.072c0-2.368,0.563-4.168,1.692-5.4
			c1.128-1.231,2.707-1.848,4.739-1.848c0.656,0,1.269,0.072,1.836,0.216c0.568,0.145,1.084,0.32,1.548,0.528l0.265-0.937
			c-0.448-0.224-0.98-0.42-1.597-0.588c-0.615-0.168-1.3-0.252-2.052-0.252c-1.232,0-2.32,0.196-3.264,0.588
			c-0.944,0.393-1.732,0.952-2.364,1.681c-0.632,0.728-1.112,1.6-1.439,2.615c-0.328,1.017-0.492,2.148-0.492,3.396
			s0.147,2.376,0.443,3.384s0.752,1.872,1.368,2.592c0.616,0.721,1.388,1.276,2.316,1.668c0.928,0.393,2.023,0.588,3.288,0.588
			c0.447,0,0.852-0.02,1.212-0.06s0.696-0.1,1.008-0.18c0.312-0.08,0.608-0.176,0.888-0.288c0.28-0.112,0.556-0.24,0.828-0.384
			L460.815,31.184z"/>
	</g>
</g>
</svg>
