<!-- Generated by IcoMoon.io -->
<svg version="1.1" xmlns="http://www.w3.org/2000/svg" width="32" height="32" viewBox="0 0 32 32">
<title>Vector-Smart-Object</title>
<path fill="none" stroke="#000" stroke-width="0.3279" stroke-miterlimit="4" stroke-linecap="butt" stroke-linejoin="miter" d="M17.849 29.911c0 0-3.417 1.822-3.417 1.839 0-0.26 0.016-3.222 0.016-3.417 0-0.016 3.401 1.578 3.401 1.578v0z"></path>
<path fill="none" stroke="#000" stroke-width="0.3279" stroke-miterlimit="4" stroke-linecap="butt" stroke-linejoin="miter" d="M2.229 17.708c0 0-1.822-3.417-1.822-3.417 0.26 0 3.222 0.016 3.417 0.016 0-0.016-1.595 3.401-1.595 3.401v0z"></path>
<path fill="none" stroke="#000" stroke-width="0.3279" stroke-miterlimit="4" stroke-linecap="butt" stroke-linejoin="miter" d="M14.432 2.072c0 0 3.417-1.822 3.417-1.822 0 0.26-0.016 3.222-0.016 3.417 0 0-3.401-1.595-3.401-1.595v0z"></path>
<path fill="none" stroke="#000" stroke-width="0.3279" stroke-miterlimit="4" stroke-linecap="butt" stroke-linejoin="miter" d="M30.052 14.275c0 0 1.822 3.417 1.822 3.417-0.26 0-3.222-0.016-3.417-0.016 0 0.016 1.595-3.401 1.595-3.401z"></path>
<path fill="none" stroke="#000" stroke-width="0.4798" stroke-miterlimit="4" stroke-linecap="round" stroke-linejoin="round" d="M14.383 29.911c-5.353-0.683-9.844-4.361-11.552-9.486"></path>
<path fill="none" stroke="#000" stroke-width="0.4798" stroke-miterlimit="4" stroke-linecap="round" stroke-linejoin="round" d="M2.229 14.096c0.732-5.353 4.458-9.811 9.6-11.471"></path>
<path fill="none" stroke="#000" stroke-width="0.4798" stroke-miterlimit="4" stroke-linecap="round" stroke-linejoin="round" d="M30.085 17.66c-0.651 5.402-4.361 9.941-9.518 11.65"></path>
<path fill="none" stroke="#000" stroke-width="0.4798" stroke-miterlimit="4" stroke-linecap="round" stroke-linejoin="round" d="M17.735 2.040c5.451 0.618 10.039 4.361 11.747 9.567"></path>
</svg>
