<?xml version="1.0" encoding="utf-8"?>
<!-- Generator: Adobe Illustrator 21.0.0, SVG Export Plug-In . SVG Version: 6.00 Build 0)  -->
<svg version="1.1" id="Слой_1" xmlns="http://www.w3.org/2000/svg" xmlns:xlink="http://www.w3.org/1999/xlink" x="0px" y="0px"
	 viewBox="0 0 732.9 731.2" style="enable-background:new 0 0 732.9 731.2;" xml:space="preserve">
<g>
	<path d="M559.8,495c16.6,26.4,45.9,44,79.4,44c51.8,0,93.7-41.9,93.7-93.7c0-51.8-41.9-93.7-93.7-93.7c-51.8,0-93.7,41.9-93.7,93.7
		c0,1.3,0,2.6,0.1,3.8l-131.1,40.5c-9.1-19.2-21.8-36.5-37-50.9l161.9-230.6c12.6,5.2,26.5,8,41,8c59.7,0,108.1-48.4,108.1-108.1
		C688.4,48.4,640,0,580.3,0C532.8,0,492.5,30.6,478,73.2L376.7,62.6c-7.7-24-30.2-41.4-56.7-41.4c-32.9,0-59.6,26.6-59.6,59.6
		c0,33,26.6,59.6,59.6,59.6c22.2,0,41.4-12.1,51.7-30L473,121c2.7,22.8,12.5,43.4,27.1,59.6L338.2,411.1c-23-11.7-49-18.3-76.6-18.3
		c-29.1,0-56.5,7.4-80.4,20.3l-58.7-79.2c6.5-10.2,10.2-22.4,10.2-35.4c0-36.6-29.7-66.3-66.3-66.3C29.7,232.2,0,261.8,0,298.4
		c0,36.6,29.7,66.3,66.3,66.3c6.1,0,11.9-0.8,17.5-2.3l58.7,79.3c-31,30.6-50.2,73.3-50.2,120.3c0,93.4,75.8,169.2,169.2,169.2
		c93.4,0,169.2-75.8,169.2-169.2c0-9-0.7-17.9-2.1-26.6L559.8,495z M559.8,495"/>
</g>
</svg>
