<?xml version="1.0" encoding="iso-8859-1"?>
<!-- Generator: Adobe Illustrator 21.0.0, SVG Export Plug-In . SVG Version: 6.00 Build 0)  -->
<svg version="1.1" id="&#x421;&#x43B;&#x43E;&#x439;_1"
	 xmlns="http://www.w3.org/2000/svg" xmlns:xlink="http://www.w3.org/1999/xlink" x="0px" y="0px" viewBox="0 0 101.027 77.429"
	 style="enable-background:new 0 0 101.027 77.429;" xml:space="preserve">
<g>
	<path d="M99.203,10.687l-8.867-8.863C89.121,0.609,87.645,0,85.906,0c-1.738,0-3.218,0.609-4.433,1.824L38.715,44.648l-19.16-19.23
		c-1.219-1.215-2.696-1.824-4.434-1.824s-3.215,0.609-4.433,1.824l-8.864,8.863C0.609,35.5,0,36.976,0,38.715
		c0,1.738,0.609,3.218,1.824,4.433l23.594,23.594l8.867,8.863c1.215,1.219,2.692,1.824,4.43,1.824s3.215-0.605,4.433-1.824
		l8.864-8.863l47.191-47.188c1.215-1.218,1.824-2.695,1.824-4.433S100.418,11.906,99.203,10.687L99.203,10.687z M99.203,10.687"/>
</g>
</svg>
