<?xml version="1.0" encoding="iso-8859-1"?>
<!-- Generator: Adobe Illustrator 21.0.0, SVG Export Plug-In . SVG Version: 6.00 Build 0)  -->
<svg version="1.1" id="&#x421;&#x43B;&#x43E;&#x439;_1"
	 xmlns="http://www.w3.org/2000/svg" xmlns:xlink="http://www.w3.org/1999/xlink" x="0px" y="0px" viewBox="0 0 384.906 384.922"
	 style="enable-background:new 0 0 384.906 384.922;" xml:space="preserve">
<g>
	<path d="M372.211,128.313h-88.582V243.93c0,21.887-17.813,39.695-39.699,39.695H128.297v88.617c0,7.004,5.676,12.68,12.68,12.68
		h231.234c7.023,0,12.695-5.676,12.695-12.68V141.004C384.906,133.985,379.234,128.313,372.211,128.313L372.211,128.313z
		 M372.211,128.313"/>
	<path d="M256.609,243.93V12.692C256.609,5.672,250.938,0,243.93,0h-92.071v125.672c0,14.445-11.742,26.188-26.187,26.188H0v92.07
		c0,7.008,5.676,12.68,12.691,12.68H243.93C250.938,256.61,256.609,250.938,256.609,243.93L256.609,243.93z M256.609,243.93"/>
	<path d="M124.84,0H12.691C5.676,0,0,5.672,0,12.692v112.597l115.371-0.414c5.238-0.019,9.469-4.269,9.469-9.504V0z M124.84,0"/>
</g>
</svg>
