<?xml version="1.0" encoding="iso-8859-1"?>
<!-- Generator: Adobe Illustrator 21.0.0, SVG Export Plug-In . SVG Version: 6.00 Build 0)  -->
<svg version="1.1" id="&#x421;&#x43B;&#x43E;&#x439;_1"
	 xmlns="http://www.w3.org/2000/svg" xmlns:xlink="http://www.w3.org/1999/xlink" x="0px" y="0px" viewBox="0 0 47.438 19.129"
	 style="enable-background:new 0 0 47.438 19.129;" xml:space="preserve">
<g>
	<path d="M25.117,6.883c9.074,0,16.574-1.012,22.321-3V3.781C40.559,1.273,33.016,0,25.012,0c-6.641,0-11.621,0.91-13.235,1.246
		l3.453,5.27C18.328,6.738,21.68,6.887,25.117,6.883L25.117,6.883z M25.117,6.883"/>
	<path d="M25.059,19.129c8.449,0,15.578-0.961,21.269-2.828c0.211-0.071,0.43-0.137,0.637-0.211c0.152-0.051,0.32-0.098,0.473-0.153
		V4.738c-5.793,1.957-13.297,2.946-22.321,2.946c-3.234,0-6.39-0.133-9.336-0.329c-0.168-0.011-0.336-0.023-0.5-0.035
		c-0.168-0.011-0.336-0.019-0.5-0.031C7.703,6.766,2.047,5.883,0.047,5.547l3.121,6.332L0,16.777
		C2.566,17.258,13.305,19.129,25.059,19.129L25.059,19.129z M25.059,19.129"/>
</g>
</svg>
