<?xml version="1.0" encoding="utf-8"?>
<!-- Generator: Adobe Illustrator 21.0.0, SVG Export Plug-In . SVG Version: 6.00 Build 0)  -->
<svg version="1.1" id="Слой_1" xmlns="http://www.w3.org/2000/svg" xmlns:xlink="http://www.w3.org/1999/xlink" x="0px" y="0px"
	 viewBox="0 0 390.3 294.7" style="enable-background:new 0 0 390.3 294.7;" xml:space="preserve">
<g>
	<path d="M386.3,31.9h-38.5V4c0-2.2-1.8-4-4-4H4C1.8,0,0,1.8,0,4v264.7c0,14.4,11.7,26,26,26h339c13.9,0,25.2-11.3,25.2-25.2V35.9
		C390.3,33.7,388.5,31.9,386.3,31.9L386.3,31.9z M382.3,269.5c0,9.5-7.7,17.2-17.2,17.2c-9.5,0-17.2-7.7-17.2-17.2v-11.1
		c0-2.2-1.8-4-4-4c-2.2,0-4,1.8-4,4v11.1c0,6.7,2.6,12.7,6.8,17.2H26c-9.9,0-18-8.1-18-18V8h331.8v213.1c0,2.2,1.8,4,4,4
		c2.2,0,4-1.8,4-4V39.9h34.5V269.5z M163.3,53.1H35.9c-2.2,0-4,1.8-4,4v95.6c0,2.2,1.8,4,4,4h127.4c2.2,0,4-1.8,4-4V57.1
		C167.3,54.9,165.5,53.1,163.3,53.1L163.3,53.1z M159.3,148.7H39.9V61.1h119.4V148.7z M180.5,57.1c0-2.2,1.8-4,4-4H312
		c2.2,0,4,1.8,4,4c0,2.2-1.8,4-4,4H184.5C182.3,61.1,180.5,59.3,180.5,57.1L180.5,57.1z M180.5,89c0-2.2,1.8-4,4-4H312
		c2.2,0,4,1.8,4,4c0,2.2-1.8,4-4,4H184.5C182.3,93,180.5,91.2,180.5,89L180.5,89z M180.5,120.8c0-2.2,1.8-4,4-4H312c2.2,0,4,1.8,4,4
		c0,2.2-1.8,4-4,4H184.5C182.3,124.8,180.5,123,180.5,120.8L180.5,120.8z M184.5,156.7c-2.2,0-4-1.8-4-4c0-2.2,1.8-4,4-4H312
		c2.2,0,4,1.8,4,4c0,2.2-1.8,4-4,4H184.5z M167.3,184.6c0,2.2-1.8,4-4,4H35.9c-2.2,0-4-1.8-4-4c0-2.2,1.8-4,4-4h127.4
		C165.5,180.6,167.3,182.4,167.3,184.6L167.3,184.6z M167.3,216.4c0,2.2-1.8,4-4,4H35.9c-2.2,0-4-1.8-4-4c0-2.2,1.8-4,4-4h127.4
		C165.5,212.4,167.3,214.2,167.3,216.4L167.3,216.4z M167.3,248.2c0,2.2-1.8,4-4,4H35.9c-2.2,0-4-1.8-4-4c0-2.2,1.8-4,4-4h127.4
		C165.5,244.2,167.3,246,167.3,248.2L167.3,248.2z M317.5,184.6c0,2.2-1.8,4-4,4H186c-2.2,0-4-1.8-4-4c0-2.2,1.8-4,4-4h127.4
		C315.7,180.6,317.5,182.4,317.5,184.6L317.5,184.6z M317.5,216.4c0,2.2-1.8,4-4,4H186c-2.2,0-4-1.8-4-4c0-2.2,1.8-4,4-4h127.4
		C315.7,212.4,317.5,214.2,317.5,216.4L317.5,216.4z M317.5,248.2c0,2.2-1.8,4-4,4H186c-2.2,0-4-1.8-4-4c0-2.2,1.8-4,4-4h127.4
		C315.7,244.2,317.5,246,317.5,248.2L317.5,248.2z M317.5,248.2"/>
</g>
</svg>
