<?xml version="1.0" encoding="iso-8859-1"?>
<!-- Generator: Adobe Illustrator 21.0.0, SVG Export Plug-In . SVG Version: 6.00 Build 0)  -->
<svg version="1.1" id="Layer_1" xmlns="http://www.w3.org/2000/svg" xmlns:xlink="http://www.w3.org/1999/xlink" x="0px" y="0px"
	 viewBox="-49 196.652 512 400.696" style="enable-background:new -49 196.652 512 400.696;" xml:space="preserve">
<path d="M79,430.391c-46.032,0-83.478,37.446-83.478,83.478S32.968,597.348,79,597.348s83.478-37.446,83.478-83.478
	S125.032,430.391,79,430.391z M79,563.957c-27.619,0-50.087-22.468-50.087-50.087c0-27.619,22.468-50.087,50.087-50.087
	s50.087,22.468,50.087,50.087C129.087,541.489,106.619,563.957,79,563.957z"/>
<path d="M412.913,497.174c-27.619,0-50.087,22.468-50.087,50.087c0,27.619,22.468,50.087,50.087,50.087
	c27.619,0,50.087-22.468,50.087-50.087C463,519.642,440.532,497.174,412.913,497.174z M412.913,563.957
	c-9.206,0-16.696-7.49-16.696-16.696s7.49-16.696,16.696-16.696c9.206,0,16.696,7.49,16.696,16.696S422.119,563.957,412.913,563.957
	z"/>
<path d="M376.494,363.071c2.647-8.829-2.364-18.134-11.193-20.783l-166.924-50.079c-8.793-2.639-18.149,2.396-20.788,11.191
	l-5.731,19.086l198.919,59.674L376.494,363.071z"/>
<path d="M412.913,463.783c5.718,0,11.299,0.581,16.696,1.682v-18.377c0-7.369-4.837-13.87-11.902-15.989L90.713,333l-63.56-127.12
	c-2.826-5.652-8.608-9.228-14.935-9.228h-44.522c-9.217,0-16.696,7.479-16.696,16.696c0,9.217,7.479,16.696,16.696,16.696H1.902
	l60.403,120.815v47.476C67.772,397.547,73.318,397,79,397c64.445,0,116.87,52.424,116.87,116.87c0,17.94-4.182,34.881-11.434,50.087
	h146.682c-1.101-5.397-1.682-10.978-1.682-16.696C329.435,501.229,366.881,463.783,412.913,463.783z M301.609,497.174h-66.783
	c-9.217,0-16.696-7.479-16.696-16.696c0-9.217,7.479-16.696,16.696-16.696h66.783c9.217,0,16.696,7.479,16.696,16.696
	C318.304,489.695,310.826,497.174,301.609,497.174z"/>
</svg>
