<?xml version="1.0" encoding="iso-8859-1"?>
<!-- Generator: Adobe Illustrator 21.0.0, SVG Export Plug-In . SVG Version: 6.00 Build 0)  -->
<svg version="1.1" id="&#x421;&#x43B;&#x43E;&#x439;_1"
	 xmlns="http://www.w3.org/2000/svg" xmlns:xlink="http://www.w3.org/1999/xlink" x="0px" y="0px" viewBox="0 0 385.92 392.88"
	 style="enable-background:new 0 0 385.92 392.88;" xml:space="preserve">
<g>
	<g>
		<defs>
			<rect id="SVGID_1_" width="385.92" height="392.88"/>
		</defs>
		<clipPath id="SVGID_2_">
			<use xlink:href="#SVGID_1_"  style="overflow:visible;"/>
		</clipPath>
		<path style="clip-path:url(#SVGID_2_);" d="M212.719,0.286c-18.078,0-12,38.641-12,38.641s-38.641,106.558-75.598,134.96
			c-7.922,8.321-12.883,17.52-16,25.04c-0.723,1.839-1.359,3.597-1.922,5.199c-2.48,5.039-7.758,12.801-19.039,19.601
			l36.961,160.719c0,0,57.199,7.441,114.559,6.238c22.961,1.84,47.281,2,66.64-2.16c65.758-14,49.282-59.84,49.282-59.84
			c35.437-26.636,15.277-59.918,15.277-59.918c31.519-32.879,0.562-60.48,0.562-60.48s17.039-26.559-4.961-46.641
			c-27.441-25.121-101.921-8.398-101.921-8.398c-5.2,0.879-10.719,2-16.637,3.437c0,0-25.762,12,0-66.16
			C273.762,12.364,230.801,0.286,212.719,0.286L212.719,0.286z M212.719,0.286"/>
	</g>
	<path d="M98.559,372.844l-28-133.039c-1.598-7.597-9.278-13.839-17.039-13.839H0.078L0,386.606h87.281
		C95.121,386.684,100.16,380.446,98.559,372.844L98.559,372.844z M98.559,372.844"/>
</g>
</svg>
