<?xml version="1.0" encoding="iso-8859-1"?>
<!-- Generator: Adobe Illustrator 21.0.0, SVG Export Plug-In . SVG Version: 6.00 Build 0)  -->
<svg version="1.1" id="&#x421;&#x43B;&#x43E;&#x439;_1"
	 xmlns="http://www.w3.org/2000/svg" xmlns:xlink="http://www.w3.org/1999/xlink" x="0px" y="0px" viewBox="0 0 299 390"
	 style="enable-background:new 0 0 299 390;" xml:space="preserve">
<g>
	<g>
		<defs>
			<rect id="SVGID_1_" width="300" height="390"/>
		</defs>
		<clipPath id="SVGID_2_">
			<use xlink:href="#SVGID_1_"  style="overflow:visible;"/>
		</clipPath>
		<path style="clip-path:url(#SVGID_2_);" d="M278.055,157.25h-7.59v-35.512c0-65.676-52.121-120.543-117.266-121.715
			c-1.777-0.031-5.336-0.031-7.113,0C80.938,1.195,28.82,56.062,28.82,121.738v35.512h-7.59C9.539,157.25,0,169.316,0,184.218
			v178.106c0,14.883,9.539,27.062,21.23,27.062h256.825c11.691,0,21.23-12.179,21.23-27.062V184.218
			C299.285,169.316,289.746,157.25,278.055,157.25L278.055,157.25z M173.703,273.089v53.817c0,6.164-5.16,11.375-11.328,11.375
			H136.91c-6.168,0-11.328-5.211-11.328-11.375v-53.817c-5.98-5.89-9.465-14.031-9.465-23.035c0-17.066,13.192-31.734,29.969-32.41
			c1.777-0.074,5.336-0.074,7.113,0c16.778,0.676,29.969,15.344,29.969,32.41C183.168,259.058,179.684,267.199,173.703,273.089
			L173.703,273.089z M220.457,157.25H78.828v-35.512c0-39.121,31.793-71.473,70.813-71.473c39.019,0,70.816,32.352,70.816,71.473
			V157.25z M220.457,157.25"/>
	</g>
</g>
</svg>
