<?xml version="1.0" encoding="utf-8"?>
<!-- Generator: Adobe Illustrator 21.0.0, SVG Export Plug-In . SVG Version: 6.00 Build 0)  -->
<svg version="1.1" id="Слой_1" xmlns="http://www.w3.org/2000/svg" xmlns:xlink="http://www.w3.org/1999/xlink" x="0px" y="0px"
	 viewBox="0 0 213 280" style="enable-background:new 0 0 213 280;" xml:space="preserve">
<style type="text/css">
	.st0{clip-path:url(#SVGID_2_);}
</style>
<g>
	<g>
		<defs>
			<rect id="SVGID_1_" x="0" width="213" height="280"/>
		</defs>
		<clipPath id="SVGID_2_">
			<use xlink:href="#SVGID_1_"  style="overflow:visible;"/>
		</clipPath>
		<path class="st0" d="M106.5,136.9c31.1,0,56.4-30.7,56.4-68.5c0-37.8-8.3-68.5-56.4-68.5C58.4,0,50.1,30.7,50.1,68.5
			C50.1,106.3,75.3,136.9,106.5,136.9L106.5,136.9z M106.5,136.9"/>
		<path class="st0" d="M0,241.5C0,239.2,0,240.8,0,241.5L0,241.5z M0,241.5"/>
	</g>
	<path d="M212.8,238.7c-1-65.9-9.6-84.6-75.5-96.5c0,0-9.3,11.8-30.9,11.8c-21.6,0-30.9-11.8-30.9-11.8
		c-65.1,11.8-74.2,30.2-75.4,94.4c-0.1,5.2-0.1,5.5-0.2,4.9c0,1.1,0,3.3,0,6.9c0,0,15.7,31.6,106.5,31.6
		c90.8,0,106.5-31.6,106.5-31.6c0-2.4,0-4,0-5.1C212.9,243.7,212.9,242.9,212.8,238.7L212.8,238.7z M212.8,238.7"/>
</g>
</svg>
