<?xml version="1.0" encoding="utf-8"?>
<!-- Generator: Adobe Illustrator 21.0.0, SVG Export Plug-In . SVG Version: 6.00 Build 0)  -->
<svg version="1.1" id="Слой_1" xmlns="http://www.w3.org/2000/svg" xmlns:xlink="http://www.w3.org/1999/xlink" x="0px" y="0px"
	 viewBox="0 0 14.4 14.4" style="enable-background:new 0 0 14.4 14.4;" xml:space="preserve">
<g>
	<path d="M13.6,10c-1,0-1.9-0.2-2.9-0.5c-0.2-0.1-0.6,0-0.8,0.2l-1.8,1.8c-2.2-1.1-4.1-3-5.3-5.3l1.8-1.8C4.9,4.2,5,3.8,4.8,3.6
		C4.6,2.7,4.4,1.8,4.4,0.8C4.4,0.3,4.1,0,3.6,0H0.8C0.3,0,0,0.3,0,0.8c0,7.5,6.1,13.6,13.6,13.6c0.5,0,0.8-0.3,0.8-0.8v-2.8
		C14.4,10.3,14.1,10,13.6,10L13.6,10z M12.8,7.2h1.6c0-4-3.2-7.2-7.2-7.2v1.6C10.3,1.6,12.8,4.1,12.8,7.2L12.8,7.2z M9.6,7.2h1.6
		c0-2.2-1.8-4-4-4v1.6C8.6,4.8,9.6,5.8,9.6,7.2L9.6,7.2z M9.6,7.2"/>
</g>
</svg>
