<?xml version="1.0" encoding="iso-8859-1"?>
<!-- Generator: Adobe Illustrator 21.0.0, SVG Export Plug-In . SVG Version: 6.00 Build 0)  -->
<svg version="1.1" id="&#x421;&#x43B;&#x43E;&#x439;_1"
	 xmlns="http://www.w3.org/2000/svg" xmlns:xlink="http://www.w3.org/1999/xlink" x="0px" y="0px" viewBox="0 0 41.602 41.602"
	 style="enable-background:new 0 0 41.602 41.602;" xml:space="preserve">
<g>
	<path d="M20.801,0C9.332,0,0,9.332,0,20.801s9.332,20.801,20.801,20.801c11.469,0,20.801-9.332,20.801-20.801S32.27,0,20.801,0
		L20.801,0z M30.801,22.398h-8.403v8.801c0,0.883-0.714,1.602-1.597,1.602c-0.883,0-1.602-0.719-1.602-1.602v-8.801h-8.398
		c-0.883,0-1.602-0.714-1.602-1.597s0.719-1.602,1.602-1.602h8.398v-8c0-0.883,0.719-1.597,1.602-1.597
		c0.883,0,1.597,0.714,1.597,1.597v8h8.403c0.883,0,1.597,0.719,1.597,1.602S31.684,22.398,30.801,22.398L30.801,22.398z
		 M30.801,22.398"/>
</g>
</svg>
