<?xml version="1.0" encoding="iso-8859-1"?>
<!-- Generator: Adobe Illustrator 21.0.0, SVG Export Plug-In . SVG Version: 6.00 Build 0)  -->
<svg version="1.1" id="&#x421;&#x43B;&#x43E;&#x439;_1"
	 xmlns="http://www.w3.org/2000/svg" xmlns:xlink="http://www.w3.org/1999/xlink" x="0px" y="0px" viewBox="0 0 21.746 27.667"
	 style="enable-background:new 0 0 21.746 27.667;" xml:space="preserve">
<g>
	<path d="M16.211,16.332h1.855v11.379H0V16.332h1.855v9.535h14.356C16.211,22.688,16.211,19.512,16.211,16.332L16.211,16.332z
		 M10.93,3.598c2.058,3.019,4.109,6.027,6.164,9.039c0.648-0.441,1.289-0.879,1.933-1.316c-2.062-3.02-4.113-6.028-6.168-9.04
		C12.215,2.723,11.578,3.156,10.93,3.598L10.93,3.598z M16.715,12.957c-3.149-1.855-6.281-3.707-9.422-5.558
		C6.891,8.074,6.5,8.738,6.102,9.41c3.14,1.856,6.277,3.703,9.425,5.559C15.926,14.293,16.32,13.629,16.715,12.957L16.715,12.957z
		 M19.875,0c-0.773,0.133-1.527,0.266-2.305,0.399C18.195,4,18.82,7.586,19.441,11.18c0.782-0.137,1.539-0.27,2.305-0.402
		C21.121,7.176,20.5,3.59,19.875,0L19.875,0z M15.336,15.633c-3.527-0.953-7.043-1.895-10.566-2.844
		c-0.204,0.754-0.407,1.5-0.61,2.258c3.528,0.949,7.047,1.895,10.57,2.84C14.934,17.129,15.133,16.383,15.336,15.633L15.336,15.633z
		 M14.344,21.684H3.422v2.324h10.922V21.684z M14.617,18.68c-3.637-0.336-7.262-0.672-10.894-1.004
		c-0.075,0.781-0.145,1.551-0.219,2.328c3.641,0.336,7.266,0.668,10.898,1.004C14.473,20.227,14.543,19.457,14.617,18.68
		L14.617,18.68z M14.617,18.68"/>
</g>
</svg>
