<?xml version="1.0" encoding="iso-8859-1"?>
<!-- Generator: Adobe Illustrator 21.0.0, SVG Export Plug-In . SVG Version: 6.00 Build 0)  -->
<svg version="1.1" id="Capa_1" xmlns="http://www.w3.org/2000/svg" xmlns:xlink="http://www.w3.org/1999/xlink" x="0px" y="0px"
	 viewBox="96.6 227.4 221.6 340" style="enable-background:new 96.6 227.4 221.6 340;" xml:space="preserve">
<g>
	<path d="M261.4,295.4h30.4c5.6,0,10.4-4.4,10.4-10.4c0-5.6-4.4-10.4-10.4-10.4h-30.4c-5.6,0-10.4,4.4-10.4,10.4
		S255.8,295.4,261.4,295.4z"/>
	<path d="M307.8,381h-46.4c-5.6,0-10.4,4.4-10.4,10.4c0,5.6,4.4,10.4,10.4,10.4h46.4c5.6,0,10.4-4.4,10.4-10.4S313.4,381,307.8,381z
		"/>
	<path d="M261,436.6c-2.4-4.8-5.6-9.2-9.2-13.6c-2.4-2.8-5.2-5.6-7.6-8.4V287.4c0-8-1.6-16-4.4-22.8c-9.6-22.8-30.8-37.2-55.6-37.2
		s-46,14.4-55.6,37.2c-2.8,7.2-4.4,14.8-4.4,22.8V415c-2.8,2.4-5.2,5.2-7.6,8.4c-3.6,4.4-6.4,8.8-9.2,13.6c-3.6,6.4-6.4,13.2-8,20.4
		c-2,7.2-2.8,14.4-2.8,22c0,12,2.4,23.2,6.8,33.6c4.4,10.8,11.2,20.4,19.2,28.4s17.6,14.4,28.4,19.2c10.4,4.4,21.6,6.8,33.6,6.8
		c24.4,0,46.4-10,62-25.6c8-8,14.4-17.6,19.2-28.4c4.4-10.4,6.8-21.6,6.8-33.6c0-7.6-0.8-14.8-2.8-22
		C267.4,449.8,264.6,443,261,436.6z M246.2,504.6c-3.2,8-8.4,15.6-14.8,22c-12,12-29.2,19.6-47.6,19.6c-9.2,0-18-2-25.6-5.2
		c-8-3.2-15.6-8.4-22-14.8s-11.2-13.6-14.8-22c-3.2-8-5.2-16.4-5.2-25.6c0-6,0.8-11.6,2-16.8c1.2-5.6,3.6-10.8,6.4-15.6
		c2-3.6,4.4-7.2,6.8-10.4c2.8-3.2,5.6-6,8.8-8.8l3.6-3.2V419V287.4c0-5.2,1.2-10.4,2.8-15.2c2-4.4,4.4-8.4,7.6-12l0.8-0.8
		c3.6-3.6,8-6.8,12.8-8.8s9.6-2.8,15.2-2.8c5.2,0,10.4,1.2,15.2,2.8c4.8,2,9.2,4.8,12.8,8.8l0.8,0.8c3.2,3.6,6,7.6,7.6,12
		c2,4.8,2.8,9.6,2.8,15.2v132.4v4.8l3.6,3.2c3.2,2.8,6,5.6,8.8,8.8c2.4,3.2,4.8,6.8,6.8,10.4c2.8,4.8,4.8,10.4,6.4,15.6
		c1.2,5.2,2,10.8,2,16.8C251.4,488.2,249.4,497,246.2,504.6z"/>
	<path d="M307.8,310.2h-46.4c-5.6,0-10.4,4.4-10.4,10.4c0,5.6,4.4,10.4,10.4,10.4h46.4c5.6,0,10.4-4.4,10.4-10.4
		C317.8,314.6,313.4,310.2,307.8,310.2z"/>
	<path d="M261.4,366.2h30.4c5.6,0,10.4-4.4,10.4-10.4c0-5.6-4.4-10.4-10.4-10.4h-30.4c-5.6,0-10.4,4.4-10.4,10.4
		C251,361.4,255.8,366.2,261.4,366.2z"/>
	<path d="M229.8,453.8c-2-4-4.8-7.2-7.6-10.4c-3.2-3.2-6.4-6-10-8.4l-3.6-2.4v-4v-49.2c0-10-5.6-18.8-15.2-22.4c-2.8-1.2-6-2-9.2-2
		s-6.4,0.8-9.2,2c-9.2,4-15.2,12.4-15.2,22.4v49.2v4l-3.6,2.4c-3.6,2.4-7.2,5.2-10,8.4c-3.2,3.2-5.6,6.8-7.6,10.4s-3.6,8-4.8,12
		s-1.6,8.4-1.6,12.8c0,6.8,1.6,13.6,4,20c2.8,6.4,6.4,12,11.2,16.8s10.4,8.8,16.8,11.2c6,2.4,12.8,4,20,4c6.8,0,13.6-1.6,20-4
		c6.4-2.8,12-6.4,16.8-11.2c4.8-4.8,8.8-10.4,11.2-16.8c2.4-6,4-12.8,4-20c0-4.4-0.4-8.8-1.6-12.8
		C233.4,461.8,231.8,457.8,229.8,453.8z"/>
</g>
</svg>
