<?xml version="1.0" encoding="UTF-8" standalone="no"?>
<svg
   xmlns:dc="http://purl.org/dc/elements/1.1/"
   xmlns:cc="http://creativecommons.org/ns#"
   xmlns:rdf="http://www.w3.org/1999/02/22-rdf-syntax-ns#"
   xmlns:svg="http://www.w3.org/2000/svg"
   xmlns="http://www.w3.org/2000/svg"
   xmlns:xlink="http://www.w3.org/1999/xlink"
   xmlns:sodipodi="http://sodipodi.sourceforge.net/DTD/sodipodi-0.dtd"
   xmlns:inkscape="http://www.inkscape.org/namespaces/inkscape"
   width="63"
   height="81"
   viewBox="0 0 63 81"
   version="1.1"
   id="svg2191"
   sodipodi:docname="cake.svg"
   inkscape:version="0.92.2 (5c3e80d, 2017-08-06)">
  <metadata
     id="metadata2195">
    <rdf:RDF>
      <cc:Work
         rdf:about="">
        <dc:format>image/svg+xml</dc:format>
        <dc:type
           rdf:resource="http://purl.org/dc/dcmitype/StillImage" />
        <dc:title></dc:title>
      </cc:Work>
    </rdf:RDF>
  </metadata>
  <sodipodi:namedview
     pagecolor="#ffffff"
     bordercolor="#666666"
     borderopacity="1"
     objecttolerance="10"
     gridtolerance="10"
     guidetolerance="10"
     inkscape:pageopacity="0"
     inkscape:pageshadow="2"
     inkscape:window-width="1920"
     inkscape:window-height="1017"
     id="namedview2193"
     showgrid="false"
     inkscape:zoom="3.4202899"
     inkscape:cx="31.5"
     inkscape:cy="34.5"
     inkscape:window-x="-8"
     inkscape:window-y="-8"
     inkscape:window-maximized="1"
     inkscape:current-layer="svg2191" />
  <defs
     id="defs2183">
    <path
       id="a"
       d="m 1069.98,3000.29 a 6.11,6.11 0 0 1 -5.9,6.12 l -5.44,22.16 c -0.2,0.78 -0.88,1.33 -1.68,1.33 H 1023 c -0.8,0 -1.5,-0.55 -1.68,-1.33 l -5.43,-22.16 a 6.14,6.14 0 1 1 -1.52,-12.02 c 0.37,-6.23 3.01,-11.83 7.54,-15.9 a 25.9,25.9 0 0 1 13.03,-6.12 5.76,5.76 0 0 1 5.04,-8.45 5.74,5.74 0 0 1 5.04,8.45 25.9,25.9 0 0 1 13.03,6.12 22.89,22.89 0 0 1 7.54,15.9 c 2.54,0.74 4.4,3.1 4.4,5.9 z m -32.25,-30.61 c 0,1.25 1,2.27 2.25,2.27 a 2.27,2.27 0 0 0 2.25,-2.27 2.27,2.27 0 0 0 -2.25,-2.28 2.27,2.27 0 0 0 -2.25,2.28 z m 8.75,36.74 h -13 l 1.72,19.99 h 9.57 z m -22.13,20 h 7.38 l -1.72,-20 h -10.56 z m 36.16,-20 h -10.56 l -1.72,19.99 h 7.38 z m 6.02,-6.13 a 2.64,2.64 0 0 0 -2.63,-2.65 c -0.95,0 -1.72,-0.77 -1.72,-1.74 0,-11.85 -9.34,-20.46 -22.2,-20.46 -12.86,0 -22.2,8.6 -22.2,20.46 0,0.96 -0.77,1.74 -1.72,1.74 a 2.6500189,2.6500189 0 1 0 -0.02,5.3 h 47.89 a 2.64,2.64 0 0 0 2.6,-2.65 z"
       inkscape:connector-curvature="0" />
    <linearGradient
       id="b"
       x1="1020.98"
       x2="1058.98"
       y1="3029.8999"
       y2="2963.9199"
       gradientUnits="userSpaceOnUse">
      <stop
         offset="0"
         stop-color="#08a8e4"
         id="stop2178" />
      <stop
         offset="1"
         stop-color="#76d8fd"
         id="stop2180" />
    </linearGradient>
  </defs>
  <g
     transform="translate(-1008,-2950)"
     id="g2189">
    <use
       xlink:href="#a"
       id="use2185"
       style="fill:#08a8e4"
       x="0"
       y="0"
       width="100%"
       height="100%" />
    <use
       xlink:href="#a"
       id="use2187"
       style="fill:url(#b)"
       x="0"
       y="0"
       width="100%"
       height="100%" />
  </g>
</svg>
