<?xml version="1.0" encoding="UTF-8" standalone="no"?>
<svg
   xmlns:dc="http://purl.org/dc/elements/1.1/"
   xmlns:cc="http://creativecommons.org/ns#"
   xmlns:rdf="http://www.w3.org/1999/02/22-rdf-syntax-ns#"
   xmlns:svg="http://www.w3.org/2000/svg"
   xmlns="http://www.w3.org/2000/svg"
   xmlns:xlink="http://www.w3.org/1999/xlink"
   xmlns:sodipodi="http://sodipodi.sourceforge.net/DTD/sodipodi-0.dtd"
   xmlns:inkscape="http://www.inkscape.org/namespaces/inkscape"
   width="88"
   height="81"
   viewBox="0 0 88 81"
   version="1.1"
   id="svg1608"
   sodipodi:docname="iron.svg"
   inkscape:version="0.92.2 (5c3e80d, 2017-08-06)">
  <metadata
     id="metadata1612">
    <rdf:RDF>
      <cc:Work
         rdf:about="">
        <dc:format>image/svg+xml</dc:format>
        <dc:type
           rdf:resource="http://purl.org/dc/dcmitype/StillImage" />
        <dc:title></dc:title>
      </cc:Work>
    </rdf:RDF>
  </metadata>
  <sodipodi:namedview
     pagecolor="#ffffff"
     bordercolor="#666666"
     borderopacity="1"
     objecttolerance="10"
     gridtolerance="10"
     guidetolerance="10"
     inkscape:pageopacity="0"
     inkscape:pageshadow="2"
     inkscape:window-width="1920"
     inkscape:window-height="1017"
     id="namedview1610"
     showgrid="false"
     inkscape:zoom="2.9873418"
     inkscape:cx="44"
     inkscape:cy="39.5"
     inkscape:window-x="-8"
     inkscape:window-y="-8"
     inkscape:window-maximized="1"
     inkscape:current-layer="svg1608" />
  <defs
     id="defs1600">
    <path
       id="a"
       d="m 682.87,3272.67 v 4.4 c 0,0.6 -0.4,1 -1,1 -0.6,0 -1,-0.4 -1,-1 v -4.3 c 0,-3.7 -2.82,-6.8 -6.44,-7.3 v 0.8 c 0,1.5 -1.21,2.7 -2.72,2.7 h -1.1 v 12.49 c 0,0.9 -0.71,1.7 -1.61,1.8 -3.53,0.4 -6.74,3.89 -7.15,7.88 1.01,0.4 1.81,1.3 1.81,2.5 v 1.9 c 0,1.4 -1.2,2.6 -2.61,2.6 H 600.6 c -1.4,0 -2.61,-1.2 -2.61,-2.6 v -1.9 c 0,-1.1 0.7,-2 1.6,-2.4 0,-0.3 0,-0.7 0.1,-1 a 57.26,57.26 0 0 1 9.96,-17.37 v -8.1 c 0,-1.29 1.01,-2.29 2.32,-2.29 h 1.5 c 1.31,0 2.32,1 2.32,2.3 v 1.8 A 58.3,58.3 0 0 1 652.9,3252 c 1,0 2.01,0 3.42,0.1 l 9.05,0.6 a 5.6,5.6 0 0 1 5.33,5.59 v 1.5 h 1.11 a 2.7,2.7 0 0 1 2.72,2.7 v 0.9 c 4.72,0.49 8.45,4.48 8.34,9.28 z m -71.1,-2.1 2.1,-2.1 v -3.7 c 0,-0.2 -0.1,-0.3 -0.3,-0.3 h -1.5 c -0.2,0 -0.3,0.1 -0.3,0.3 z m 49.98,23.17 c 0,-0.3 -0.3,-0.6 -0.6,-0.6 H 600.7 c -0.3,0 -0.6,0.3 -0.6,0.6 v 1.9 c 0,0.3 0.3,0.6 0.6,0.6 h 60.45 c 0.3,0 0.6,-0.3 0.6,-0.6 z m 6.94,-35.45 c 0,-1.9 -1.5,-3.5 -3.42,-3.6 l -9.05,-0.6 c -1,-0.1 -1.8,-0.1 -2.51,-0.1 h -0.8 a 56.56,56.56 0 0 0 -37.32,15.48 c -0.1,0.2 -0.2,0.3 -0.4,0.4 -1.31,1.2 -2.52,2.5 -3.62,3.9 l -0.3,0.3 a 58.26,58.26 0 0 0 -9.66,16.88 l 0.1,0.1 h 58.13 c 0.5,-5 4.33,-9.2 8.85,-9.7 z m 3.83,4.1 c 0,-0.4 -0.3,-0.7 -0.7,-0.7 h -1.12 v 5.19 h 1.11 c 0.4,0 0.7,-0.3 0.7,-0.7 z m -14.39,4.79 v 11.68 c 0,2 -1.6,3.7 -3.72,3.7 h -26.75 c -1.31,0 -2.42,-0.6 -3.02,-1.7 a 4,4 0 0 1 0.2,-4.1 c 5.43,-8.89 15.29,-13.38 29.47,-13.38 2.21,0 3.92,1.7 3.82,3.8 z m -8.85,13.38 -0.2,-1 c -0.2,-0.9 -1,-1.5 -1.91,-1.5 H 635.7 c -0.9,0 -1.7,0.6 -1.9,1.5 l -0.2,1 z m 6.84,-1.7 v -11.78 c 0,-0.9 -0.8,-1.7 -1.8,-1.7 -13.39,0 -22.74,4.1 -27.77,12.38 -0.4,0.7 -0.4,1.5 -0.1,2.1 0.2,0.5 0.6,0.7 1.2,0.7 h 3.83 l 0.3,-1.4 c 0.4,-1.8 2.01,-3.1 3.92,-3.1 h 11.47 c 1.91,0 3.52,1.3 3.92,3.1 l 0.3,1.4 h 3.12 c 0.9,0 1.71,-0.8 1.71,-1.7 z m -6.64,35.46 a 6.07,6.07 0 0 1 -7.74,8.09 14.13,14.13 0 0 1 -22.53,0 6.07,6.07 0 0 1 -7.74,-8.09 c 0.2,-0.5 0.8,-0.7 1.3,-0.5 0.5,0.2 0.7,0.8 0.5,1.3 a 4.13,4.13 0 0 0 5.83,5.2 c 0.41,-0.31 1.01,-0.11 1.32,0.29 a 12,12 0 0 0 10.05,5.39 12,12 0 0 0 10.06,-5.4 c 0.3,-0.4 0.8,-0.5 1.3,-0.3 0.71,0.3 1.32,0.5 2.02,0.5 a 4.13,4.13 0 0 0 3.82,-5.69 c -0.2,-0.5 0,-1.1 0.5,-1.3 0.5,-0.2 1.11,0.1 1.31,0.5 z m -19.1,1.5 c -0.61,0 -1.01,-0.4 -1.01,-1 v -9.4 c 0,-0.6 0.4,-1 1,-1 0.6,0 1,0.4 1,1 v 9.4 c 0,0.5 -0.4,1 -1,1 z m 11.66,-2.1 -3.62,-8.2 c -0.2,-0.5 0,-1.1 0.5,-1.3 0.5,-0.2 1.1,0 1.31,0.5 l 3.62,8.2 c 0.2,0.5 0,1.1 -0.5,1.3 -0.1,0.1 -0.3,0.1 -0.4,0.1 -0.4,0 -0.8,-0.2 -0.91,-0.6 z m -24.34,0.5 c -0.5,-0.2 -0.7,-0.8 -0.5,-1.3 l 3.62,-8.2 c 0.2,-0.5 0.8,-0.7 1.3,-0.5 0.5,0.2 0.71,0.8 0.5,1.3 l -3.61,8.2 c -0.1,0.4 -0.5,0.6 -0.9,0.6 -0.1,0 -0.2,0 -0.41,-0.1 z"
       inkscape:connector-curvature="0" />
    <linearGradient
       id="b"
       x1="618.88"
       x2="661.98999"
       y1="3328"
       y2="3252"
       gradientUnits="userSpaceOnUse">
      <stop
         offset="0"
         stop-color="#08a8e4"
         id="stop1595" />
      <stop
         offset="1"
         stop-color="#76d8fd"
         id="stop1597" />
    </linearGradient>
  </defs>
  <g
     transform="translate(-596,-3248)"
     id="g1606">
    <use
       xlink:href="#a"
       id="use1602"
       style="fill:#08a8e4"
       x="0"
       y="0"
       width="100%"
       height="100%" />
    <use
       xlink:href="#a"
       id="use1604"
       style="fill:url(#b)"
       x="0"
       y="0"
       width="100%"
       height="100%" />
  </g>
</svg>
