<?xml version="1.0" encoding="UTF-8" standalone="no"?>
<svg
   xmlns:dc="http://purl.org/dc/elements/1.1/"
   xmlns:cc="http://creativecommons.org/ns#"
   xmlns:rdf="http://www.w3.org/1999/02/22-rdf-syntax-ns#"
   xmlns:svg="http://www.w3.org/2000/svg"
   xmlns="http://www.w3.org/2000/svg"
   xmlns:xlink="http://www.w3.org/1999/xlink"
   xmlns:sodipodi="http://sodipodi.sourceforge.net/DTD/sodipodi-0.dtd"
   xmlns:inkscape="http://www.inkscape.org/namespaces/inkscape"
   width="125"
   height="81"
   viewBox="0 0 125 81"
   version="1.1"
   id="svg849"
   sodipodi:docname="kettle.svg"
   inkscape:version="0.92.2 (5c3e80d, 2017-08-06)">
  <metadata
     id="metadata853">
    <rdf:RDF>
      <cc:Work
         rdf:about="">
        <dc:format>image/svg+xml</dc:format>
        <dc:type
           rdf:resource="http://purl.org/dc/dcmitype/StillImage" />
        <dc:title></dc:title>
      </cc:Work>
    </rdf:RDF>
  </metadata>
  <sodipodi:namedview
     pagecolor="#ffffff"
     bordercolor="#666666"
     borderopacity="1"
     objecttolerance="10"
     gridtolerance="10"
     guidetolerance="10"
     inkscape:pageopacity="0"
     inkscape:pageshadow="2"
     inkscape:window-width="1920"
     inkscape:window-height="1017"
     id="namedview851"
     showgrid="false"
     inkscape:zoom="4.0729351"
     inkscape:cx="35.037992"
     inkscape:cy="6.6358148"
     inkscape:window-x="-8"
     inkscape:window-y="-8"
     inkscape:window-maximized="1"
     inkscape:current-layer="svg849" />
  <defs
     id="defs841">
    <path
       id="a"
       d="m 688.59,3019.08 c 0.05,0.85 0.08,1.7 0.08,2.54 0,0.18 -0.04,0.35 -0.09,0.52 a 8.07,8.07 0 0 1 -8.15,7.75 h -74 a 8.06,8.06 0 0 1 -8.14,-7.75 1.7,1.7 0 0 1 -0.09,-0.52 c 0,-1.25 0.06,-2.5 0.16,-3.76 -7.9,-1.32 -9.64,-11.8 -11.2,-21.1 -1.05,-6.34 -2.25,-13.52 -5.18,-13.52 -0.72,0 -1.38,-0.4 -1.7,-1.03 a 1.8,1.8 0 0 1 0.2,-1.93 l 4.43,-5.61 c 0.36,-0.46 0.91,-0.72 1.5,-0.72 7.64,0 10.69,6.83 13.14,12.33 2.14,4.78 3.72,7.87 6.39,8.48 a 56.7,56.7 0 0 1 9.92,-12.56 c 6.22,-5.87 13.75,-10.06 22.06,-11.38 a 5.92,5.92 0 0 1 -0.73,-2.82 c 0,-3.36 2.8,-6.08 6.25,-6.08 a 6.17,6.17 0 0 1 6.25,6.08 c 0,1.02 -0.26,1.98 -0.72,2.82 10.06,1.6 19,7.43 25.83,15.34 a 14.14,14.14 0 0 1 12.63,-8.79 c 5.98,-0.16 10.77,3.44 12.18,9.19 1.6,6.52 -1.24,10.18 -4.25,14.06 -3.17,4.08 -6.76,8.72 -6.77,18.46 z m -45.33,-45.01 c -7.38,0.04 -14.64,2.7 -21.11,7.64 h 42.6 c -6.48,-4.94 -13.73,-7.6 -21.12,-7.64 h -0.38 z m 0.08,-3.68 h 0.2 a 2.43,2.43 0 0 0 2.37,-2.4 c 0,-1.32 -1.1,-2.4 -2.47,-2.4 a 2.44,2.44 0 0 0 -2.46,2.4 2.43,2.43 0 0 0 2.36,2.4 z m -44.5,43.79 a 56.17,56.17 0 0 1 5.3,-16.1 c -4.09,-1.48 -6.17,-6.14 -8.05,-10.34 -2.55,-5.72 -4.6,-9.6 -8.79,-10.07 l -2.18,2.78 c 3.55,2.32 4.65,8.87 5.79,15.71 1.63,9.8 3.2,16.96 7.92,18.02 z m 85.97,7.76 c 0,-0.17 0.04,-0.33 0.08,-0.48 -0.04,-10.93 -4.62,-22.93 -12.27,-32.13 a 51.89,51.89 0 0 0 -3.65,-3.96 l -0.2,0.02 H 617.9 a 52.3,52.3 0 0 0 -3.64,3.95 c -7.65,9.2 -12.23,21.2 -12.27,32.12 0.04,0.16 0.07,0.32 0.07,0.48 a 4.33,4.33 0 0 0 4.39,4.27 h 73.99 a 4.32,4.32 0 0 0 4.37,-4.27 z m 1.83,-14 c 1.53,-4.14 3.75,-7.02 5.7,-9.54 2.88,-3.7 4.78,-6.15 3.6,-10.98 -1.2,-4.84 -5.12,-6.46 -8.4,-6.36 -4.03,0.11 -8.56,2.84 -9.92,8.64 a 59,59 0 0 1 9.02,18.24 z"
       inkscape:connector-curvature="0" />
    <linearGradient
       id="b"
       x1="620.07001"
       x2="660.09003"
       y1="3029.8899"
       y2="2961.9199"
       gradientUnits="userSpaceOnUse">
      <stop
         offset="0"
         stop-color="#08a8e4"
         id="stop836" />
      <stop
         offset="1"
         stop-color="#76d8fd"
         id="stop838" />
    </linearGradient>
    <linearGradient
       id="b-9"
       x1="227"
       x2="253"
       y1="3030"
       y2="2985"
       gradientUnits="userSpaceOnUse">
      <stop
         offset="0"
         stop-color="#08a8e4"
         id="stop876" />
      <stop
         offset="1"
         stop-color="#76d8fd"
         id="stop878" />
    </linearGradient>
  </defs>
  <g
     transform="translate(-578,-2950)"
     id="g847">
    <use
       xlink:href="#a"
       id="use843"
       style="fill:#08a8e4"
       x="0"
       y="0"
       width="100%"
       height="100%" />
    <use
       xlink:href="#a"
       id="use845"
       style="fill:url(#b)"
       x="0"
       y="0"
       width="100%"
       height="100%" />
  </g>
</svg>
