<svg xmlns="http://www.w3.org/2000/svg" xmlns:xlink="http://www.w3.org/1999/xlink" width="65" height="68" viewBox="0 0 65 68"><defs><path id="a" d="M116.58 3955.02l-14.27 60.16c-.2 1-1.2 1.7-2.2 1.7H71.76c-1.1 0-2-.7-2.21-1.7l-14.27-60.16c-.3-1.2.5-2.41 1.71-2.72 1.2-.3 2.41.5 2.71 1.71l4.12 17.4c3.42 2.22 6.33.51 9.75-1.4 3.92-2.21 8.34-4.73 13.06 0 4.12 4.12 7.43 2.21 11.35 0 3.32-1.91 6.94-3.92 10.85-1.71l3.42-14.39c.3-1.2 1.5-2 2.71-1.7 1.2.3 2.01 1.5 1.61 2.81zm-8.24 15.5c-2.81-2.02-5.42-.81-9.14 1.3-2.21 1.3-4.72 2.72-7.54 2.72-2.1 0-4.32-.8-6.53-3.02-3.41-3.42-6.13-2.11-10.35.3-2.9 1.71-6.33 3.62-10.14 2.31l9.04 38.13H98.4z"/></defs><g transform="translate(-53 -3950)"><use fill="#fff" xlink:href="#a"/></g></svg>