<svg xmlns="http://www.w3.org/2000/svg" xmlns:xlink="http://www.w3.org/1999/xlink" width="68" height="69" viewBox="0 0 68 69"><defs><path id="a" d="M382.44 3740.92a3.67 3.67 0 0 1-3.67-3.67c0-2.02 3.67-8.25 3.67-8.25s3.68 6.23 3.68 8.25a3.67 3.67 0 0 1-3.68 3.67zm-6.42 22.91a3.67 3.67 0 0 1-3.67-3.66c0-2.03 3.67-8.25 3.67-8.25s3.67 6.22 3.67 8.25a3.67 3.67 0 0 1-3.67 3.66zm-6.43-22.91a3.67 3.67 0 0 1-3.67-3.67c0-2.02 3.67-8.25 3.67-8.25s3.67 6.23 3.67 8.25a3.67 3.67 0 0 1-3.67 3.67zm25.7 0a3.67 3.67 0 0 1-3.67-3.67c0-2.02 3.67-8.25 3.67-8.25s3.68 6.23 3.68 8.25a3.67 3.67 0 0 1-3.67 3.67zm-6.42 22.91a3.67 3.67 0 0 1-3.67-3.66c0-2.03 3.67-8.25 3.67-8.25s3.67 6.22 3.67 8.25a3.67 3.67 0 0 1-3.67 3.66zm-6.43 22.92a3.67 3.67 0 0 1-3.67-3.67c0-1.67 2.4-6 2.87-6.86l.8-1.43.8 1.43c.48.85 2.87 5.19 2.87 6.86a3.67 3.67 0 0 1-3.67 3.67zm0-8.15c-.98 1.9-1.83 3.86-1.83 4.48a1.84 1.84 0 0 0 3.67 0c0-.62-.85-2.57-1.84-4.48zm33.05 8.15a3.67 3.67 0 0 1-3.67-3.67c0-1.67 2.39-6.01 2.87-6.86l.8-1.43.8 1.43c.48.85 2.87 5.19 2.87 6.86a3.67 3.67 0 0 1-3.67 3.67zm0-8.15c-.98 1.9-1.84 3.86-1.84 4.48a1.84 1.84 0 0 0 3.68 0c0-.62-.86-2.57-1.84-4.48zm5.5-14.77l-5.5 6.42-5.5-6.42h2.75v-22h-3.56L402.3 3795H362.58l-7.58-58.67h5.55l6.87 53.17h30.04l6.87-53.17h13.91v27.5zm-41.3-17.87h5.5v2.75h-5.5zm-13.77 0h6.43v2.75h-6.43zm26.62 0h6.43v2.75h-6.43zm-12.85 22h5.5v2.75h-5.5zm-11.02 0h3.68v2.75h-3.68zm23.87 0h3.67v2.75h-3.67z"/></defs><g transform="translate(-354 -3728)"><use fill="#fff" xlink:href="#a"/></g></svg>