<svg xmlns="http://www.w3.org/2000/svg" xmlns:xlink="http://www.w3.org/1999/xlink" width="74" height="47" viewBox="0 0 74 47"><defs><path id="a" d="M268.33 3030h-61.07c-1.25 0-2.26-1-2.26-2.24a2.25 2.25 0 0 1 2.26-2.24h14.33a27.5 27.5 0 0 1-12.69-23.1v-15.18a2.25 2.25 0 0 1 2.26-2.24h51.22c1.25 0 2.26 1 2.26 2.24v2.67h1.63a8.7 8.7 0 0 1 8.73 8.65 8.7 8.7 0 0 1-8.73 8.65h-2.06a27.62 27.62 0 0 1-12.26 18.32h16.38c1.25 0 2.26 1 2.26 2.24a2.24 2.24 0 0 1-2.26 2.23zm-2.06-35.6h-1.63v8.34h1.63a4.2 4.2 0 0 0 4.22-4.17 4.2 4.2 0 0 0-4.22-4.18zm-29.5 31.13c12.88 0 23.36-10.37 23.36-23.11v-12.95h-46.71v12.95c0 12.74 10.48 23.1 23.35 23.1z"/><linearGradient id="b" x1="227" x2="253" y1="3030" y2="2985" gradientUnits="userSpaceOnUse"><stop offset="0" stop-color="#08a8e4"/><stop offset="1" stop-color="#76d8fd"/></linearGradient></defs><g transform="translate(-203 -2984)"><use fill="#08a8e4" xlink:href="#a"/><use fill="url(#b)" xlink:href="#a"/></g></svg>