<?xml version="1.0" encoding="UTF-8" standalone="no"?>
<svg
   xmlns:dc="http://purl.org/dc/elements/1.1/"
   xmlns:cc="http://creativecommons.org/ns#"
   xmlns:rdf="http://www.w3.org/1999/02/22-rdf-syntax-ns#"
   xmlns:svg="http://www.w3.org/2000/svg"
   xmlns="http://www.w3.org/2000/svg"
   xmlns:xlink="http://www.w3.org/1999/xlink"
   xmlns:sodipodi="http://sodipodi.sourceforge.net/DTD/sodipodi-0.dtd"
   xmlns:inkscape="http://www.inkscape.org/namespaces/inkscape"
   width="74"
   height="81"
   viewBox="0 0 74 81"
   version="1.1"
   id="svg889"
   sodipodi:docname="cup1.svg"
   inkscape:version="0.92.2 (5c3e80d, 2017-08-06)">
  <metadata
     id="metadata893">
    <rdf:RDF>
      <cc:Work
         rdf:about="">
        <dc:format>image/svg+xml</dc:format>
        <dc:type
           rdf:resource="http://purl.org/dc/dcmitype/StillImage" />
        <dc:title></dc:title>
      </cc:Work>
    </rdf:RDF>
  </metadata>
  <sodipodi:namedview
     pagecolor="#ffffff"
     bordercolor="#666666"
     borderopacity="1"
     objecttolerance="10"
     gridtolerance="10"
     guidetolerance="10"
     inkscape:pageopacity="0"
     inkscape:pageshadow="2"
     inkscape:window-width="1920"
     inkscape:window-height="1017"
     id="namedview891"
     showgrid="false"
     inkscape:zoom="5.0212766"
     inkscape:cx="37"
     inkscape:cy="23.5"
     inkscape:window-x="-8"
     inkscape:window-y="-8"
     inkscape:window-maximized="1"
     inkscape:current-layer="svg889" />
  <defs
     id="defs881">
    <path
       id="a"
       d="m 268.33,3030 h -61.07 c -1.25,0 -2.26,-1 -2.26,-2.24 a 2.25,2.25 0 0 1 2.26,-2.24 h 14.33 a 27.5,27.5 0 0 1 -12.69,-23.1 v -15.18 a 2.25,2.25 0 0 1 2.26,-2.24 h 51.22 c 1.25,0 2.26,1 2.26,2.24 v 2.67 h 1.63 a 8.7,8.7 0 0 1 8.73,8.65 8.7,8.7 0 0 1 -8.73,8.65 h -2.06 a 27.62,27.62 0 0 1 -12.26,18.32 h 16.38 c 1.25,0 2.26,1 2.26,2.24 a 2.24,2.24 0 0 1 -2.26,2.23 z m -2.06,-35.6 h -1.63 v 8.34 h 1.63 a 4.2,4.2 0 0 0 4.22,-4.17 4.2,4.2 0 0 0 -4.22,-4.18 z m -29.5,31.13 c 12.88,0 23.36,-10.37 23.36,-23.11 v -12.95 h -46.71 v 12.95 c 0,12.74 10.48,23.1 23.35,23.1 z"
       inkscape:connector-curvature="0" />
    <linearGradient
       id="b"
       x1="227"
       x2="253"
       y1="3030"
       y2="2985"
       gradientUnits="userSpaceOnUse">
      <stop
         offset="0"
         stop-color="#08a8e4"
         id="stop876" />
      <stop
         offset="1"
         stop-color="#76d8fd"
         id="stop878" />
    </linearGradient>
  </defs>
  <g
     transform="translate(-203,-2950)"
     id="g887">
    <use
       xlink:href="#a"
       id="use883"
       style="fill:#08a8e4"
       x="0"
       y="0"
       width="100%"
       height="100%" />
    <use
       xlink:href="#a"
       id="use885"
       style="fill:url(#b)"
       x="0"
       y="0"
       width="100%"
       height="100%" />
  </g>
</svg>
