<svg xmlns="http://www.w3.org/2000/svg" xmlns:xlink="http://www.w3.org/1999/xlink" width="83" height="82" viewBox="0 0 83 82"><defs><path id="a" d="M215.9 3278.64c-.21-.6-.02-1.25.47-1.65l14.26-11.4v-14.1c0-.83.66-1.49 1.48-1.49h17.78c.82 0 1.48.66 1.48 1.48v14.1l14.26 11.41a1.48 1.48 0 0 1-.93 2.64h-47.4c-.63 0-1.2-.4-1.4-.99zm5.62-1.97h38.96l-11.52-9.22c-.35-.28-.55-.7-.55-1.15v-13.34h-14.82v13.34c0 .45-.2.87-.55 1.15zm9.11 45.92v-8.89c0-.82.66-1.48 1.48-1.48h17.78c.82 0 1.48.66 1.48 1.48v8.9c0 .81-.66 1.47-1.48 1.47H232.1c-.82 0-1.48-.66-1.48-1.48zm2.96-1.48h14.82v-5.93h-14.82zm-2.96-13.33c0-.82.66-1.48 1.48-1.48h2.96a1.48 1.48 0 1 1 0 2.96h-2.96c-.82 0-1.48-.66-1.48-1.48zm14.81 0c0-.82.67-1.48 1.49-1.48h2.96a1.48 1.48 0 1 1 0 2.96h-2.96c-.82 0-1.49-.66-1.49-1.48zm35.56-5.93c0 .82-.66 1.48-1.48 1.48h-1.48v25.19c0 .82-.67 1.48-1.48 1.48h-71.12c-.81 0-1.48-.66-1.48-1.48v-25.19h-1.48a1.48 1.48 0 1 1 0-2.96h77.04c.82 0 1.48.66 1.48 1.48zm-53.33 1.48v23.7h26.66v-23.7zm-20.74 23.7h17.77v-23.7h-17.77zm68.14-23.7H257.3v23.7h17.77z"/><linearGradient id="b" x1="218" x2="264" y1="3330" y2="3250" gradientUnits="userSpaceOnUse"><stop offset="0" stop-color="#08a8e4"/><stop offset="1" stop-color="#76d8fd"/></linearGradient></defs><g transform="translate(-199 -3249)"><use fill="#08a8e4" xlink:href="#a"/><use fill="url(#b)" xlink:href="#a"/></g></svg>