<svg xmlns="http://www.w3.org/2000/svg" xmlns:xlink="http://www.w3.org/1999/xlink" width="86" height="81" viewBox="0 0 86 81"><defs><path id="a" d="M1032.1 3258.78a8.84 8.84 0 0 1 8.91-8.78c4.92 0 8.9 3.93 8.9 8.78a8.84 8.84 0 0 1-8.9 8.78 8.84 8.84 0 0 1-8.9-8.78zm3.57 0c0 2.9 2.4 5.26 5.34 5.26a5.31 5.31 0 0 0 5.34-5.26 5.3 5.3 0 0 0-5.34-5.27 5.3 5.3 0 0 0-5.34 5.27zm38.37 42.65c-.93 7.61-4.98 13.2-12.65 17.52l-2.73 8.05c-.4 1.2-1.53 2-2.81 2h-5.94a2.95 2.95 0 0 1-2.65-1.62l-1.94-3.82c-2.82.23-5.8.23-8.62 0l-1.94 3.82c-.5 1-1.52 1.62-2.65 1.62h-5.94c-1.28 0-2.4-.8-2.81-2l-2.73-8.06a26.26 26.26 0 0 1-7.26-6l-2.12.52a6.5 6.5 0 0 1-7.92-4.68l-2.88-11.37a6.47 6.47 0 0 1 4.75-7.8l4.17-1.03a24.52 24.52 0 0 1 2.86-5.22 12.4 12.4 0 0 0-5.93-3.85 2.28 2.28 0 0 1-1.74-1.74c-.2-.86.15-1.76.88-2.3.57-.4 5.78-4.08 11.85-4.08 2.65 0 5.04.71 7.14 2.1a39.31 39.31 0 0 1 16.58-3.6c15.96 0 29.5 9.13 32.58 21.58 2.15-1.23 2.45-2.5 2.47-2.56.1-.73.65-1.3 1.38-1.45a1.8 1.8 0 0 1 1.88.82c.05.07 4.17 6.87-5.28 13.15zm2.3-7.53a14.5 14.5 0 0 1-3.45 1.75 1.77 1.77 0 0 1-2.38-1.4c-1.66-11.88-14.34-20.84-29.5-20.84a35.45 35.45 0 0 0-15.96 3.7 1.8 1.8 0 0 1-1.94-.2 9.06 9.06 0 0 0-5.82-2c-2.95 0-5.78 1.16-7.62 2.13 1.83.88 4.3 2.5 6.26 5.32.44.63.41 1.47-.07 2.07a21.13 21.13 0 0 0-3.46 6.2c-.2.56-.67.99-1.25 1.13l-5.08 1.26a2.93 2.93 0 0 0-2.16 3.54l2.87 11.36a3.04 3.04 0 0 0 3.6 2.13l3.25-.8a1.8 1.8 0 0 1 1.86.66 22.64 22.64 0 0 0 7.47 6.3c.4.2.7.56.83.98l2.81 8.3h5.14l2.32-4.58a1.78 1.78 0 0 1 1.78-.96c3.35.36 7 .36 10.34 0 .74-.07 1.45.3 1.78.96l2.32 4.58h5.14l2.8-8.3c.15-.42.45-.77.84-.98 7.33-3.96 10.88-8.88 11.52-15.95.05-.55.36-1.04.83-1.33 2.95-1.82 4.33-3.57 4.92-5.03zm-51.75-7.9a3.54 3.54 0 0 1 3.56 3.52c0 1.94-1.6 3.51-3.56 3.51a3.54 3.54 0 0 1-3.56-3.51c0-1.94 1.6-3.51 3.56-3.51zm27.05-5.73a1.78 1.78 0 0 1-2.16 1.28 35.83 35.83 0 0 0-16.94 0 1.75 1.75 0 1 1-.87-3.4 39.43 39.43 0 0 1 18.68 0c.95.23 1.53 1.18 1.3 2.12z"/><linearGradient id="b" x1="1017.26" x2="1063.25" y1="3329" y2="3250" gradientUnits="userSpaceOnUse"><stop offset="0" stop-color="#08a8e4"/><stop offset="1" stop-color="#76d8fd"/></linearGradient></defs><g transform="translate(-999 -3249)"><use fill="#08a8e4" xlink:href="#a"/><use fill="url(#b)" xlink:href="#a"/></g></svg>