<svg xmlns="http://www.w3.org/2000/svg" xmlns:xlink="http://www.w3.org/1999/xlink" width="73" height="48" viewBox="0 0 73 48"><defs><path id="a" d="M69.28 3739.74c5.06 5.3 10.05 11.58 10.05 18.2 0 6.54-5.15 12.06-11.66 12.06-6.52 0-11.67-5.52-11.67-12.06 0-6.62 5-12.9 10.05-18.2.38-.4.9-.64 1.46-.68.67-.04 1.32.2 1.77.68zm46.67 0c5.05 5.3 10.05 11.58 10.05 18.2 0 6.54-5.15 12.06-11.67 12.06-6.51 0-11.66-5.52-11.66-12.06 0-6.62 5-12.9 10.05-18.2a2.23 2.23 0 0 1 3.24 0zm-55.58 18.2c0 4.44 3.35 7.84 7.3 7.84 3.94 0 7.29-3.4 7.29-7.84 0-3.85-3.25-8.9-7.3-13.5-4.03 4.6-7.29 9.65-7.29 13.5zm46.67 0c0 4.44 3.35 7.84 7.3 7.84 3.94 0 7.28-3.4 7.28-7.84 0-3.85-3.25-8.9-7.29-13.5-4.04 4.6-7.29 9.65-7.29 13.5zm-16.2-4.81c.67-.05 1.33.2 1.78.68 5.05 5.3 10.05 11.57 10.05 18.19 0 6.54-5.15 12.06-11.67 12.06s-11.67-5.52-11.67-12.06c0-6.62 5-12.9 10.05-18.2.38-.4.9-.64 1.46-.67zm.16 5.38c-4.04 4.6-7.3 9.64-7.3 13.49 0 4.44 3.35 7.84 7.3 7.84 3.95 0 7.3-3.4 7.3-7.84 0-3.85-3.26-8.9-7.3-13.5z"/></defs><g transform="translate(-54 -3738)"><use fill="#fff" xlink:href="#a"/></g></svg>