<svg xmlns="http://www.w3.org/2000/svg" xmlns:xlink="http://www.w3.org/1999/xlink" width="71" height="73" viewBox="0 0 71 73"><defs><path id="a" d="M388.53 3979.63c-8.16 0-14.8-6.87-14.8-15.32 0-8.44 6.64-15.31 14.8-15.31 8.17 0 14.82 6.87 14.82 15.31 0 8.45-6.65 15.32-14.82 15.32zm0-26.26c-5.83 0-10.58 4.91-10.58 10.94 0 6.03 4.75 10.94 10.58 10.94 5.84 0 10.58-4.9 10.58-10.94 0-6.03-4.74-10.94-10.58-10.94zm23.59 65.63h-47.17a6.47 6.47 0 0 1-6.33-6.07l-3.58-48.1a6.73 6.73 0 0 1 1.67-4.98 6.28 6.28 0 0 1 4.66-2.1h8.12c1.17 0 2.12.98 2.12 2.19 0 1.2-.95 2.18-2.12 2.18h-8.12c-.6 0-1.15.25-1.56.71a2.2 2.2 0 0 0-.55 1.66l3.58 48.11a2.16 2.16 0 0 0 2.11 2.03h47.17c1.1 0 2.03-.9 2.11-2.03l3.58-48.11c.05-.62-.15-1.2-.56-1.66-.4-.46-.95-.7-1.55-.7h-8.12a2.15 2.15 0 0 1-2.12-2.2c0-1.2.95-2.18 2.12-2.18h8.12c1.76 0 3.46.77 4.66 2.1a6.73 6.73 0 0 1 1.67 4.97l-3.58 48.12a6.48 6.48 0 0 1-6.33 6.06zm-23.59-50.31c-.4 0-.8-.12-1.17-.37a2.24 2.24 0 0 1-.59-3.03l4.24-6.57c.64-1 1.95-1.28 2.93-.6.97.67 1.24 2.02.59 3.03l-4.24 6.56a2.1 2.1 0 0 1-1.76.98z"/></defs><g transform="translate(-353 -3947)"><use fill="#fff" xlink:href="#a"/></g></svg>