<!-- Generated by IcoMoon.io -->
<svg version="1.1" xmlns="http://www.w3.org/2000/svg" width="32" height="32" viewBox="0 0 32 32">
<title>shape-6</title>
<path d="M13.421 5.992c-0.94 0-1.702-0.762-1.702-1.702v0c0-0.937 1.702-3.826 1.702-3.826s1.707 2.889 1.707 3.826c0 0 0 0 0 0 0 0.94-0.762 1.702-1.702 1.702-0.002 0-0.003 0-0.005 0h0zM10.444 16.617c0 0 0 0 0 0-0.938 0-1.699-0.759-1.702-1.697v-0c0-0.941 1.702-3.826 1.702-3.826s1.702 2.885 1.702 3.826c-0.003 0.938-0.764 1.697-1.702 1.697 0 0 0 0 0 0v0zM7.462 5.992c-0.94 0-1.702-0.762-1.702-1.702v0c0-0.937 1.702-3.826 1.702-3.826s1.702 2.889 1.702 3.826c0 0.94-0.762 1.702-1.702 1.702v0zM19.381 5.992c-0.94 0-1.702-0.762-1.702-1.702v0c0-0.937 1.702-3.826 1.702-3.826s1.707 2.889 1.707 3.826c0 0.94-0.762 1.702-1.702 1.702v0zM16.403 16.617c0 0 0 0 0 0-0.938 0-1.699-0.759-1.702-1.697v-0c0-0.941 1.702-3.826 1.702-3.826s1.702 2.885 1.702 3.826c-0.003 0.938-0.764 1.697-1.702 1.697 0 0 0 0 0 0v0zM13.421 27.246c-0.94 0-1.702-0.762-1.702-1.702v0c0-0.774 1.113-2.783 1.331-3.181l0.371-0.663 0.371 0.663c0.223 0.394 1.331 2.407 1.331 3.181 0 0.94-0.762 1.702-1.702 1.702v0zM13.421 23.467c-0.454 0.881-0.849 1.79-0.849 2.078 0.034 0.443 0.402 0.79 0.851 0.79s0.817-0.347 0.851-0.788l0-0.003c0-0.288-0.394-1.192-0.853-2.078zM28.749 27.246c-0.94 0-1.702-0.762-1.702-1.702v0c0-0.774 1.108-2.787 1.331-3.181l0.371-0.663 0.371 0.663c0.223 0.394 1.331 2.407 1.331 3.181 0 0.94-0.762 1.702-1.702 1.702v0zM28.749 23.467c-0.454 0.881-0.853 1.79-0.853 2.078 0 0.471 0.382 0.853 0.853 0.853s0.853-0.382 0.853-0.853v0c0-0.288-0.399-1.192-0.853-2.078zM31.3 16.617l-2.551 2.977-2.551-2.977h1.275v-10.203h-1.651l-3.191 24.659h-18.421l-3.515-27.209h2.574l3.186 24.659h13.932l3.186-24.659h6.451v12.754zM12.146 8.329h2.551v1.275h-2.551zM5.76 8.329h2.982v1.275h-2.982zM18.105 8.329h2.982v1.275h-2.982zM12.146 18.532h2.551v1.275h-2.551zM7.035 18.532h1.707v1.275h-1.707zM18.105 18.532h1.702v1.275h-1.702z"></path>
</svg>
