<!-- Generated by IcoMoon.io -->
<svg version="1.1" xmlns="http://www.w3.org/2000/svg" width="32" height="32" viewBox="0 0 32 32">
<title>chemical-bond</title>
<path d="M24.439 21.653c0.725 1.153 2.004 1.921 3.466 1.921 2.261 0 4.091-1.829 4.091-4.091s-1.829-4.091-4.091-4.091c-2.261 0-4.091 1.829-4.091 4.091 0 0.057 0 0.113 0.004 0.166l-5.723 1.768c-0.397-0.838-0.952-1.593-1.615-2.222l7.068-10.067c0.55 0.227 1.157 0.349 1.79 0.349 2.606 0 4.719-2.113 4.719-4.719-0.004-2.602-2.117-4.715-4.724-4.715-2.074 0-3.833 1.336-4.466 3.196l-4.422-0.463c-0.336-1.048-1.318-1.807-2.475-1.807-1.436 0-2.602 1.161-2.602 2.602s1.161 2.602 2.602 2.602c0.969 0 1.807-0.528 2.257-1.31l4.422 0.463c0.118 0.995 0.546 1.895 1.183 2.602l-7.068 10.063c-1.004-0.511-2.139-0.799-3.344-0.799-1.27 0-2.467 0.323-3.51 0.886l-2.563-3.458c0.284-0.445 0.445-0.978 0.445-1.545 0-1.598-1.297-2.894-2.894-2.894-1.602 0-2.899 1.292-2.899 2.89s1.297 2.894 2.894 2.894c0.266 0 0.519-0.035 0.764-0.1l2.563 3.462c-1.353 1.336-2.192 3.2-2.192 5.252 0 4.078 3.309 7.387 7.387 7.387s7.387-3.309 7.387-7.387c0-0.393-0.031-0.781-0.092-1.161l5.728-1.764z"></path>
</svg>
