<!-- Generated by IcoMoon.io -->
<svg version="1.1" xmlns="http://www.w3.org/2000/svg" width="32" height="32" viewBox="0 0 32 32">
<title>correct-symbol</title>
<path d="M31.431 7.188l-2.809-2.808c-0.385-0.385-0.853-0.578-1.404-0.578s-1.020 0.193-1.404 0.578l-13.547 13.568-6.071-6.093c-0.386-0.385-0.854-0.578-1.405-0.578s-1.019 0.193-1.405 0.578l-2.808 2.808c-0.385 0.386-0.578 0.854-0.578 1.405s0.193 1.020 0.578 1.404l10.285 10.283c0.385 0.386 0.853 0.578 1.404 0.578s1.019-0.192 1.405-0.578l17.76-17.759c0.385-0.386 0.578-0.854 0.578-1.405s-0.193-1.019-0.578-1.405v0z"></path>
</svg>
