<!-- Generated by IcoMoon.io -->
<svg version="1.1" xmlns="http://www.w3.org/2000/svg" width="32" height="32" viewBox="0 0 32 32">
<title>divide-tool</title>
<path d="M30.943 10.667h-7.364v9.612c0 1.82-1.481 3.3-3.3 3.3h-9.613v7.367c0 0.582 0.472 1.054 1.054 1.054h19.223c0.584 0 1.055-0.472 1.055-1.054v-19.224c0-0.584-0.472-1.055-1.055-1.055v0z"></path>
<path d="M21.333 20.279v-19.224c0-0.584-0.471-1.055-1.054-1.055h-7.654v10.448c0 1.201-0.976 2.177-2.177 2.177h-10.448v7.654c0 0.583 0.472 1.054 1.055 1.054h19.224c0.583 0 1.054-0.472 1.054-1.054v0z"></path>
<path d="M10.378 0h-9.323c-0.583 0-1.055 0.472-1.055 1.055v9.361l9.591-0.034c0.435-0.002 0.787-0.355 0.787-0.79v-9.591z"></path>
</svg>
