<!-- Generated by IcoMoon.io -->
<svg version="1.1" xmlns="http://www.w3.org/2000/svg" width="32" height="32" viewBox="0 0 32 32">
<title>folded-ribbon-side-view</title>
<path d="M17.101 14.218c6.178 0 11.284-0.689 15.197-2.043v-0.069c-4.684-1.708-9.819-2.574-15.269-2.574-4.522 0-7.912 0.62-9.011 0.848l2.351 3.588c2.109 0.151 4.391 0.253 6.732 0.25v0z"></path>
<path d="M17.061 22.556c5.753 0 10.606-0.654 14.481-1.925 0.144-0.048 0.293-0.093 0.434-0.144 0.104-0.035 0.218-0.067 0.322-0.104v-7.625c-3.944 1.332-9.053 2.006-15.197 2.006-2.202 0-4.351-0.091-6.356-0.224-0.114-0.008-0.229-0.016-0.34-0.024-0.114-0.008-0.229-0.013-0.34-0.021-4.819-0.356-8.67-0.957-10.032-1.186l2.125 4.311-2.157 3.335c1.747 0.328 9.059 1.601 17.061 1.601v0z"></path>
</svg>
