<?xml version="1.0" encoding="UTF-8" standalone="no"?>
<svg
   xmlns:dc="http://purl.org/dc/elements/1.1/"
   xmlns:cc="http://creativecommons.org/ns#"
   xmlns:rdf="http://www.w3.org/1999/02/22-rdf-syntax-ns#"
   xmlns:svg="http://www.w3.org/2000/svg"
   xmlns="http://www.w3.org/2000/svg"
   id="svg416"
   viewBox="0 0 32 25"
   height="25"
   width="32"
   version="1.1">
  <metadata
     id="metadata422">
    <rdf:RDF>
      <cc:Work
         rdf:about="">
        <dc:format>image/svg+xml</dc:format>
        <dc:type
           rdf:resource="http://purl.org/dc/dcmitype/StillImage" />
        <dc:title>folded-newspaper</dc:title>
      </cc:Work>
    </rdf:RDF>
  </metadata>
  <defs
     id="defs420" />
  <title
     id="title412">folded-newspaper</title>
  <path
     id="path414"
     d="m 31.729058,3.2174793 h -3.159 V 0.92847934 c 0,-0.181 -0.148,-0.328 -0.328,-0.328 H 0.36105785 c -0.18,0 -0.328,0.148 -0.328,0.328 V 22.647479 c 0,1.182 0.96,2.133 2.13300005,2.133 H 29.981058 c 1.14,0 2.068,-0.927 2.068,-2.068 V 3.5454793 c 0.008,-0.181 -0.14,-0.328 -0.32,-0.328 z m -0.328,19.4949997 c 0,0.779 -0.632,1.411 -1.411,1.411 -0.779,0 -1.411,-0.632 -1.411,-1.411 v -0.911 c 0,-0.18 -0.148,-0.328 -0.328,-0.328 -0.18,0 -0.328,0.148 -0.328,0.328 v 0.911 c 0,0.55 0.213,1.042 0.558,1.411 H 2.1670579 c -0.812,0 -1.47700005,-0.665 -1.47700005,-1.477 V 1.2554793 H 27.915058 V 18.740479 c 0,0.18 0.148,0.328 0.328,0.328 0.18,0 0.328,-0.148 0.328,-0.328 V 3.8724793 h 2.831 V 22.711479 Z M 13.432058,4.9564793 H 2.9790579 c -0.18,0 -0.328,0.148 -0.328,0.328 v 7.8439997 c 0,0.18 0.148,0.328 0.328,0.328 H 13.432058 c 0.181,0 0.328,-0.148 0.328,-0.328 V 5.2844793 c 0,-0.181 -0.148,-0.328 -0.328,-0.328 z m -0.328,7.8439997 H 3.3070579 V 5.6124793 h 9.7970001 z m 1.739,-7.5149997 c 0,-0.181 0.148,-0.328 0.328,-0.328 h 10.462 c 0.18,0 0.328,0.148 0.328,0.328 0,0.18 -0.148,0.328 -0.328,0.328 h -10.462 c -0.181,0 -0.328,-0.148 -0.328,-0.328 z m 0,2.6169997 c 0,-0.181 0.148,-0.328 0.328,-0.328 h 10.462 c 0.18,0 0.328,0.148 0.328,0.328 0,0.18 -0.148,0.328 -0.328,0.328 h -10.462 c -0.181,0 -0.328,-0.148 -0.328,-0.328 z m 0,2.609 c 0,-0.181 0.148,-0.328 0.328,-0.328 h 10.462 c 0.18,0 0.328,0.148 0.328,0.328 0,0.18 -0.148,0.328 -0.328,0.328 h -10.462 c -0.181,0 -0.328,-0.148 -0.328,-0.328 z m 0.328,2.946 c -0.181,0 -0.328,-0.148 -0.328,-0.328 0,-0.18 0.148,-0.328 0.328,-0.328 h 10.462 c 0.18,0 0.328,0.148 0.328,0.328 0,0.18 -0.148,0.328 -0.328,0.328 z m -1.411,2.289 c 0,0.18 -0.148,0.328 -0.328,0.328 H 2.9790579 c -0.18,0 -0.328,-0.148 -0.328,-0.328 0,-0.18 0.148,-0.328 0.328,-0.328 H 13.432058 c 0.181,0 0.328,0.148 0.328,0.328 z m 0,2.609 c 0,0.18 -0.148,0.328 -0.328,0.328 H 2.9790579 c -0.18,0 -0.328,-0.148 -0.328,-0.328 0,-0.18 0.148,-0.328 0.328,-0.328 H 13.432058 c 0.181,0 0.328,0.148 0.328,0.328 z m 0,2.61 c 0,0.18 -0.148,0.328 -0.328,0.328 H 2.9790579 c -0.18,0 -0.328,-0.148 -0.328,-0.328 0,-0.18 0.148,-0.328 0.328,-0.328 H 13.432058 c 0.181,0 0.328,0.148 0.328,0.328 z m 12.324,-5.219 c 0,0.18 -0.148,0.328 -0.328,0.328 h -10.462 c -0.181,0 -0.328,-0.148 -0.328,-0.328 0,-0.18 0.148,-0.328 0.328,-0.328 h 10.453 c 0.189,0 0.336,0.148 0.336,0.328 v 0 z m 0,2.609 c 0,0.18 -0.148,0.328 -0.328,0.328 h -10.462 c -0.181,0 -0.328,-0.148 -0.328,-0.328 0,-0.18 0.148,-0.328 0.328,-0.328 h 10.453 c 0.189,0 0.336,0.148 0.336,0.328 v 0 z m 0,2.61 c 0,0.18 -0.148,0.328 -0.328,0.328 h -10.462 c -0.181,0 -0.328,-0.148 -0.328,-0.328 0,-0.18 0.148,-0.328 0.328,-0.328 h 10.453 c 0.189,0 0.336,0.148 0.336,0.328 v 0 z" />
</svg>
