<!-- Generated by IcoMoon.io -->
<svg version="1.1" xmlns="http://www.w3.org/2000/svg" width="32" height="32" viewBox="0 0 32 32">
<title>lawn-mower</title>
<path d="M8 18.077c-2.877 0-5.217 2.34-5.217 5.217s2.34 5.217 5.217 5.217 5.217-2.34 5.217-5.217-2.34-5.217-5.217-5.217zM8 26.425c-1.726 0-3.13-1.404-3.13-3.13s1.404-3.13 3.13-3.13 3.13 1.404 3.13 3.13c0 1.726-1.404 3.13-3.13 3.13z"></path>
<path d="M28.87 22.251c-1.726 0-3.13 1.404-3.13 3.13s1.404 3.13 3.13 3.13c1.726 0 3.13-1.404 3.13-3.13s-1.404-3.13-3.13-3.13zM28.87 26.425c-0.575 0-1.044-0.468-1.044-1.044s0.468-1.044 1.044-1.044c0.575 0 1.044 0.468 1.044 1.044s-0.468 1.044-1.044 1.044z"></path>
<path d="M26.593 13.87c0.165-0.552-0.148-1.133-0.7-1.299l-10.433-3.13c-0.55-0.165-1.134 0.15-1.299 0.699l-0.358 1.193 12.432 3.73 0.357-1.193z"></path>
<path d="M28.87 20.164c0.357 0 0.706 0.036 1.044 0.105v-1.149c0-0.461-0.302-0.867-0.744-0.999l-20.437-6.131-3.973-7.945c-0.177-0.353-0.538-0.577-0.933-0.577h-2.783c-0.576 0-1.044 0.467-1.044 1.044s0.467 1.043 1.044 1.043h2.138l3.775 7.551v2.967c0.342-0.049 0.688-0.083 1.043-0.083 4.028 0 7.304 3.277 7.304 7.304 0 1.121-0.261 2.18-0.715 3.13h9.168c-0.069-0.337-0.105-0.686-0.105-1.044-0-2.877 2.34-5.217 5.217-5.217zM21.913 22.251h-4.174c-0.576 0-1.044-0.467-1.044-1.044s0.467-1.044 1.044-1.044h4.174c0.576 0 1.044 0.467 1.044 1.044s-0.467 1.044-1.044 1.044z"></path>
</svg>
