<!-- Generated by IcoMoon.io -->
<svg version="1.1" xmlns="http://www.w3.org/2000/svg" width="32" height="32" viewBox="0 0 32 32">
<title>like</title>
<path d="M17.606 0.023c-1.472 0-0.977 3.146-0.977 3.146s-3.146 8.676-6.156 10.989c-0.645 0.678-1.049 1.427-1.303 2.039-0.059 0.15-0.111 0.293-0.156 0.423-0.202 0.41-0.632 1.042-1.55 1.596l3.010 13.087c0 0 4.657 0.606 9.328 0.508 1.87 0.15 3.85 0.163 5.426-0.176 5.354-1.14 4.013-4.872 4.013-4.872 2.885-2.169 1.244-4.879 1.244-4.879 2.566-2.677 0.046-4.925 0.046-4.925s1.387-2.163-0.404-3.798c-2.234-2.045-8.299-0.684-8.299-0.684-0.423 0.072-0.873 0.163-1.355 0.28 0 0-2.098 0.977 0-5.387 2.104-6.364-1.394-7.348-2.866-7.348v0z"></path>
<path d="M8.31 30.359l-2.28-10.833c-0.13-0.619-0.755-1.127-1.387-1.127h-4.351l-0.006 13.080h7.107c0.638 0.006 1.049-0.502 0.918-1.121v0z"></path>
</svg>
