<!-- Generated by IcoMoon.io -->
<svg version="1.1" xmlns="http://www.w3.org/2000/svg" width="32" height="32" viewBox="0 0 32 32">
<title>locked-padlock</title>
<path d="M26.548 12.903h-0.623v-2.914c0-5.389-4.277-9.891-9.622-9.987-0.146-0.003-0.438-0.003-0.584 0-5.345 0.096-9.622 4.598-9.622 9.987v2.914h-0.623c-0.959 0-1.742 0.99-1.742 2.213v14.614c0 1.221 0.783 2.22 1.742 2.22h21.073c0.959 0 1.742-0.999 1.742-2.22v-14.614c0-1.223-0.783-2.213-1.742-2.213v0zM17.986 22.407v4.416c0 0.506-0.423 0.933-0.929 0.933h-2.089c-0.506 0-0.929-0.428-0.929-0.933v-4.416c-0.491-0.483-0.777-1.151-0.777-1.89 0-1.4 1.082-2.604 2.459-2.659 0.146-0.006 0.438-0.006 0.584 0 1.377 0.055 2.459 1.259 2.459 2.659 0 0.739-0.286 1.407-0.777 1.89v0zM21.822 12.903h-11.621v-2.914c0-3.21 2.609-5.864 5.81-5.864s5.811 2.655 5.811 5.864v2.914z"></path>
</svg>
