<!-- Generated by IcoMoon.io -->
<svg version="1.1" xmlns="http://www.w3.org/2000/svg" width="32" height="32" viewBox="0 0 32 32">
<title>man-user</title>
<path d="M16 15.646c3.554 0 6.446-3.509 6.446-7.829s-0.949-7.829-6.446-7.829c-5.497 0.011-6.446 3.52-6.446 7.84s2.88 7.817 6.446 7.817v0z"></path>
<path d="M28.149 27.28c-0.114-7.531-1.097-9.669-8.629-11.029 0 0-1.063 1.349-3.531 1.349s-3.531-1.349-3.531-1.349c-7.44 1.349-8.48 3.451-8.617 10.789-0.011 0.594-0.011 0.629-0.023 0.56 0 0.126 0 0.377 0 0.789 0 0 1.794 3.611 12.171 3.611s12.171-3.611 12.171-3.611c0-0.274 0-0.457 0-0.583 0 0.046 0-0.046-0.011-0.526v0z"></path>
</svg>
