<!-- Generated by IcoMoon.io -->
<svg version="1.1" xmlns="http://www.w3.org/2000/svg" width="32" height="32" viewBox="0 0 32 32">
<title>phone-working-indicator1</title>
<path d="M30.222 22.222c-2.222 0-4.222-0.444-6.444-1.111-0.444-0.222-1.333 0-1.778 0.444l-4 4c-4.889-2.444-9.111-6.667-11.778-11.778l4-4c0.667-0.444 0.889-1.333 0.444-1.778-0.444-2-0.889-4-0.889-6.222 0-1.111-0.667-1.778-1.778-1.778h-6.222c-1.111 0-1.778 0.667-1.778 1.778 0 16.667 13.556 30.222 30.222 30.222 1.111 0 1.778-0.667 1.778-1.778v-6.222c0-1.111-0.667-1.778-1.778-1.778v0zM28.444 16h3.556c0-8.889-7.111-16-16-16v3.556c6.889 0 12.444 5.556 12.444 12.444v0zM21.333 16h3.556c0-4.889-4-8.889-8.889-8.889v3.556c3.111 0 5.333 2.222 5.333 5.333v0z"></path>
</svg>
