<!-- Generated by IcoMoon.io -->
<svg version="1.1" xmlns="http://www.w3.org/2000/svg" width="32" height="32" viewBox="0 0 32 32">
<title>plus</title>
<path d="M16 0c-8.822 0-16 7.178-16 16s7.178 16 16 16c8.822 0 16-7.178 16-16s-7.178-16-16-16v0zM23.692 17.228h-6.464v6.77c0 0.679-0.549 1.232-1.228 1.232s-1.232-0.553-1.232-1.232v-6.77h-6.46c-0.679 0-1.232-0.549-1.232-1.228s0.553-1.232 1.232-1.232h6.46v-6.154c0-0.679 0.553-1.228 1.232-1.228s1.228 0.549 1.228 1.228v6.154h6.464c0.679 0 1.228 0.553 1.228 1.232s-0.549 1.228-1.228 1.228v0z"></path>
</svg>
