<!-- Generated by IcoMoon.io -->
<svg version="1.1" xmlns="http://www.w3.org/2000/svg" width="32" height="32" viewBox="0 0 32 32">
<title>stack-overflow</title>
<path d="M21.955 18.665h2.12v13.005h-20.647v-13.005h2.12v10.897h16.407c0-3.633 0-7.263 0-10.897v0zM15.92 4.112c2.352 3.45 4.696 6.888 7.045 10.33 0.741-0.504 1.473-1.005 2.209-1.504-2.357-3.451-4.701-6.889-7.049-10.331-0.736 0.505-1.464 1-2.205 1.505v0zM22.531 14.808c-3.599-2.12-7.178-4.237-10.768-6.352-0.459 0.771-0.906 1.53-1.361 2.298 3.589 2.121 7.174 4.232 10.771 6.353 0.456-0.773 0.906-1.531 1.358-2.299v0zM26.143 0c-0.883 0.152-1.745 0.304-2.634 0.456 0.714 4.115 1.429 8.214 2.138 12.321 0.894-0.157 1.759-0.309 2.634-0.459-0.714-4.117-1.424-8.215-2.138-12.318v0zM20.955 17.866c-4.031-1.089-8.049-2.166-12.075-3.25-0.233 0.862-0.465 1.714-0.697 2.581 4.032 1.085 8.054 2.166 12.080 3.246 0.233-0.866 0.461-1.719 0.693-2.576v0zM19.822 24.782h-12.482v2.656h12.482v-2.656zM20.134 21.349c-4.157-0.384-8.299-0.768-12.45-1.147-0.086 0.893-0.166 1.773-0.25 2.661 4.161 0.384 8.304 0.763 12.455 1.147 0.081-0.893 0.161-1.773 0.246-2.661v0z"></path>
</svg>
