<!-- Generated by IcoMoon.io -->
<svg version="1.1" xmlns="http://www.w3.org/2000/svg" width="32" height="32" viewBox="0 0 32 32">
<title>temperature</title>
<path d="M21.064 6.4h2.861c0.527 0 0.979-0.414 0.979-0.979 0-0.527-0.414-0.979-0.979-0.979h-2.861c-0.527 0-0.979 0.414-0.979 0.979s0.452 0.979 0.979 0.979z"></path>
<path d="M25.431 14.456h-4.367c-0.527 0-0.979 0.414-0.979 0.979 0 0.527 0.414 0.979 0.979 0.979h4.367c0.527 0 0.979-0.414 0.979-0.979s-0.452-0.979-0.979-0.979z"></path>
<path d="M21.026 19.689c-0.226-0.452-0.527-0.866-0.866-1.28-0.226-0.264-0.489-0.527-0.715-0.791v-11.972c0-0.753-0.151-1.506-0.414-2.146-0.904-2.146-2.899-3.501-5.233-3.501s-4.329 1.355-5.233 3.501c-0.264 0.678-0.414 1.393-0.414 2.146v12.009c-0.264 0.226-0.489 0.489-0.715 0.791-0.339 0.414-0.602 0.828-0.866 1.28-0.339 0.602-0.602 1.242-0.753 1.92-0.188 0.678-0.264 1.355-0.264 2.071 0 1.129 0.226 2.184 0.64 3.162 0.414 1.016 1.054 1.92 1.807 2.673s1.656 1.355 2.673 1.807c0.979 0.414 2.033 0.64 3.162 0.64 2.296 0 4.367-0.941 5.835-2.409 0.753-0.753 1.355-1.656 1.807-2.673 0.414-0.979 0.64-2.033 0.64-3.162 0-0.715-0.075-1.393-0.264-2.071-0.226-0.753-0.489-1.393-0.828-1.995zM19.633 26.089c-0.301 0.753-0.791 1.468-1.393 2.071-1.129 1.129-2.748 1.845-4.48 1.845-0.866 0-1.694-0.188-2.409-0.489-0.753-0.301-1.468-0.791-2.071-1.393s-1.054-1.28-1.393-2.071c-0.301-0.753-0.489-1.544-0.489-2.409 0-0.565 0.075-1.092 0.188-1.581 0.113-0.527 0.339-1.016 0.602-1.468 0.188-0.339 0.414-0.678 0.64-0.979 0.264-0.301 0.527-0.565 0.828-0.828l0.339-0.301v-12.838c0-0.489 0.113-0.979 0.264-1.431 0.188-0.414 0.414-0.791 0.715-1.129l0.075-0.075c0.339-0.339 0.753-0.64 1.205-0.828s0.904-0.264 1.431-0.264c0.489 0 0.979 0.113 1.431 0.264 0.452 0.188 0.866 0.452 1.205 0.828l0.075 0.075c0.301 0.339 0.565 0.715 0.715 1.129 0.188 0.452 0.264 0.904 0.264 1.431v12.913l0.339 0.301c0.301 0.264 0.565 0.527 0.828 0.828 0.226 0.301 0.452 0.64 0.64 0.979 0.264 0.452 0.452 0.979 0.602 1.468 0.113 0.489 0.188 1.016 0.188 1.581 0.151 0.828-0.038 1.656-0.339 2.372z"></path>
<path d="M25.431 7.793h-4.367c-0.527 0-0.979 0.414-0.979 0.979 0 0.527 0.414 0.979 0.979 0.979h4.367c0.527 0 0.979-0.414 0.979-0.979-0.038-0.565-0.452-0.979-0.979-0.979z"></path>
<path d="M21.064 13.064h2.861c0.527 0 0.979-0.414 0.979-0.979 0-0.527-0.414-0.979-0.979-0.979h-2.861c-0.527 0-0.979 0.414-0.979 0.979 0 0.527 0.452 0.979 0.979 0.979z"></path>
<path d="M18.089 21.308c-0.188-0.376-0.452-0.678-0.715-0.979-0.301-0.301-0.602-0.565-0.941-0.791l-0.339-0.226v-5.007c0-0.941-0.527-1.769-1.431-2.108-0.264-0.113-0.565-0.188-0.866-0.188s-0.602 0.075-0.866 0.188c-0.866 0.376-1.431 1.167-1.431 2.108v5.007l-0.339 0.226c-0.339 0.226-0.678 0.489-0.941 0.791-0.301 0.301-0.527 0.64-0.715 0.979s-0.339 0.753-0.452 1.129-0.151 0.791-0.151 1.205c0 0.64 0.151 1.28 0.376 1.882 0.264 0.602 0.602 1.129 1.054 1.581s0.979 0.828 1.581 1.054c0.565 0.226 1.205 0.376 1.882 0.376 0.64 0 1.28-0.151 1.882-0.376 0.602-0.264 1.129-0.602 1.581-1.054s0.828-0.979 1.054-1.581c0.226-0.565 0.376-1.205 0.376-1.882 0-0.414-0.038-0.828-0.151-1.205s-0.264-0.753-0.452-1.129z"></path>
</svg>
