<!-- Generated by IcoMoon.io -->
<svg version="1.1" xmlns="http://www.w3.org/2000/svg" width="32" height="32" viewBox="0 0 32 32">
<title>transfer</title>
<path d="M31 5h-23v-3c0-0.404-0.244-0.77-0.618-0.924s-0.802-0.068-1.090 0.216l-6 6c-0.39 0.39-0.39 1.024 0 1.414l6 6c0.288 0.286 0.716 0.372 1.090 0.218s0.618-0.52 0.618-0.924v-3h23c0.552 0 1-0.448 1-1v-4c0-0.554-0.448-1-1-1z"></path>
<path d="M25.708 17.292c-0.286-0.286-0.716-0.372-1.090-0.216s-0.618 0.52-0.618 0.924v3h-23c-0.552 0-1 0.448-1 1v4c0 0.552 0.448 1 1 1h23v3c0 0.404 0.244 0.77 0.618 0.924 0.374 0.156 0.804 0.070 1.090-0.216l6-6c0.39-0.39 0.39-1.024 0-1.414l-6-6.002z"></path>
</svg>
